<svg width="37" height="36" viewBox="0 0 37 36" fill="none" xmlns="http://www.w3.org/2000/svg">
<path d="M26.7159 35.9043C21.2682 35.9043 16.8358 31.6032 16.8358 26.3168C16.8358 21.0304 21.2682 16.7293 26.7159 16.7293C32.1636 16.7293 36.5959 21.0304 36.5959 26.3168C36.5959 31.6032 32.1636 35.9043 26.7159 35.9043Z" fill="#168118"/>
<path d="M13.0359 31.4793H3.9158C1.82123 31.4793 0.115784 29.8258 0.115784 27.7918V8.61677C0.115784 6.58274 1.82123 4.92927 3.9158 4.92927H32.796C34.8905 4.92927 36.596 6.58274 36.596 8.61677V15.9918C36.596 16.3989 36.2555 16.7293 35.836 16.7293C35.4165 16.7293 35.076 16.3989 35.076 15.9918V8.61677C35.076 7.39694 34.053 6.40427 32.796 6.40427H3.9158C2.65876 6.40427 1.63579 7.39694 1.63579 8.61677V27.7918C1.63579 29.0116 2.65876 30.0043 3.9158 30.0043H13.0359C13.4554 30.0043 13.7959 30.3347 13.7959 30.7418C13.7959 31.1489 13.4554 31.4793 13.0359 31.4793Z" fill="#110638"/>
<path d="M11.5158 24.1043H0.875788C0.456266 24.1043 0.115784 23.7739 0.115784 23.3668V13.0418C0.115784 12.6347 0.456266 12.3043 0.875788 12.3043H11.5158C13.6104 12.3043 15.3159 13.9577 15.3159 15.9918V16.98C15.3159 17.3871 14.9754 17.7175 14.5559 17.7175C14.1363 17.7175 13.7959 17.3871 13.7959 16.98V15.9918C13.7959 14.7719 12.7729 13.7793 11.5158 13.7793H1.63579V22.6293H11.5158C11.9293 22.5319 12.3367 22.7797 12.4355 23.1735C12.5343 23.5703 12.2865 23.9715 11.8791 24.0674C11.7287 24.1043 11.601 24.1043 11.5158 24.1043Z" fill="#110638"/>
<path d="M7.71574 21.1543C6.03917 21.1543 4.67572 19.8312 4.67572 18.2043C4.67572 16.5774 6.03917 15.2543 7.71574 15.2543C9.39231 15.2543 10.7558 16.5774 10.7558 18.2043C10.7558 19.8312 9.39231 21.1543 7.71574 21.1543ZM7.71574 16.7293C6.87821 16.7293 6.19573 17.3901 6.19573 18.2043C6.19573 19.0185 6.87821 19.6793 7.71574 19.6793C8.55326 19.6793 9.23574 19.0185 9.23574 18.2043C9.23574 17.3901 8.55326 16.7293 7.71574 16.7293Z" fill="#110638"/>
<path d="M26.7158 32.2168C26.2962 32.2168 25.9557 31.8864 25.9557 31.4793V30.373C25.9557 29.9659 26.2962 29.6355 26.7158 29.6355C27.1353 29.6355 27.4758 29.9659 27.4758 30.373V31.4793C27.4758 31.8864 27.1353 32.2168 26.7158 32.2168Z" fill="white"/>
<path d="M27.0959 30.7418H24.4359C24.0164 30.7418 23.6759 30.4114 23.6759 30.0043C23.6759 29.5972 24.0164 29.2668 24.4359 29.2668H27.0959C27.7252 29.2668 28.2359 28.7697 28.2359 28.1605C28.2359 27.5514 27.7252 27.0543 27.0959 27.0543H26.3359C24.8691 27.0543 23.6759 25.8964 23.6759 24.473C23.6759 23.0497 24.8691 21.8918 26.3359 21.8918H28.9959C29.4155 21.8918 29.7559 22.2222 29.7559 22.6293C29.7559 23.0364 29.4155 23.3668 28.9959 23.3668H26.3359C25.7066 23.3668 25.1959 23.8639 25.1959 24.473C25.1959 25.0822 25.7066 25.5793 26.3359 25.5793H27.0959C28.5627 25.5793 29.7559 26.7372 29.7559 28.1605C29.7559 29.5839 28.5627 30.7418 27.0959 30.7418Z" fill="white"/>
<path d="M26.7158 22.998C26.2962 22.998 25.9557 22.6676 25.9557 22.2605V21.1543C25.9557 20.7472 26.2962 20.4168 26.7158 20.4168C27.1353 20.4168 27.4758 20.7472 27.4758 21.1543V22.2605C27.4758 22.6676 27.1353 22.998 26.7158 22.998Z" fill="white"/>
</svg>
