<svg xmlns="http://www.w3.org/2000/svg" width="25" height="25" viewBox="0 0 25 25" fill="none">
<g clip-path="url(#clip0_142_1942)">
<circle cx="12.5" cy="12.5" r="12.5" fill="white"/>
<path fill-rule="evenodd" clip-rule="evenodd" d="M12.5 0.520508C5.88413 0.520508 0.520874 5.88377 0.520874 12.4997C0.520874 19.1156 5.88413 24.4788 12.5 24.4788C19.116 24.4788 24.4792 19.1156 24.4792 12.4997C24.4792 5.88377 19.116 0.520508 12.5 0.520508ZM3.85421 12.4997C3.85421 7.72472 7.72508 3.85384 12.5 3.85384C14.3092 3.85384 15.9875 4.40901 17.3755 5.35854L5.35889 17.3751C4.40936 15.9872 3.85421 14.3088 3.85421 12.4997ZM12.5 21.1455C10.6909 21.1455 9.01253 20.5903 7.6246 19.6408L19.6412 7.62426C20.5906 9.01219 21.1459 10.6905 21.1459 12.4997C21.1459 17.2747 17.275 21.1455 12.5 21.1455Z" fill="#E63946"/>
</g>
<defs>
<clipPath id="clip0_142_1942">
<rect width="25" height="25" fill="white"/>
</clipPath>
</defs>
</svg>