<svg width="37" height="36" viewBox="0 0 37 36" fill="none" xmlns="http://www.w3.org/2000/svg">
<path d="M26.9325 35.5627C21.5217 35.5627 17.1194 31.2908 17.1194 26.0402C17.1194 20.7897 21.5217 16.5177 26.9325 16.5177C32.3432 16.5177 36.7455 20.7897 36.7455 26.0402C36.7455 31.2908 32.3432 35.5627 26.9325 35.5627Z" fill="#E63946"/>
<path d="M13.3452 28.2377H4.28696C2.20507 28.2377 0.512695 26.594 0.512695 24.5752V6.99519C0.512695 4.97642 2.20507 3.3327 4.28696 3.3327H26.9325C29.0144 3.3327 30.7068 4.97642 30.7068 6.99519V12.8552C30.7068 13.261 30.3686 13.5877 29.9519 13.5877C29.5353 13.5877 29.1971 13.261 29.1971 12.8552V6.99519C29.1971 5.78364 28.181 4.79769 26.9325 4.79769H4.28696C3.03843 4.79769 2.0224 5.78364 2.0224 6.99519V24.5752C2.0224 25.7867 3.03843 26.7727 4.28696 26.7727H13.3452C13.7619 26.7727 14.1 27.1009 14.1 27.5052C14.1 27.9095 13.7619 28.2377 13.3452 28.2377Z" fill="#110638"/>
<path d="M29.9519 10.6577H1.26755C0.850869 10.6577 0.512695 10.3296 0.512695 9.92521C0.512695 9.52087 0.850869 9.19271 1.26755 9.19271H29.9519C30.3686 9.19271 30.7068 9.52087 30.7068 9.92521C30.7068 10.3296 30.3686 10.6577 29.9519 10.6577Z" fill="#110638"/>
<path d="M7.30637 7.72769C6.88969 7.72769 6.55151 7.39953 6.55151 6.99519V1.13519C6.55151 0.730847 6.88969 0.402687 7.30637 0.402687C7.72304 0.402687 8.06122 0.730847 8.06122 1.13519V6.99519C8.06122 7.39953 7.72304 7.72769 7.30637 7.72769Z" fill="#110638"/>
<path d="M23.9131 7.72769C23.4964 7.72769 23.1582 7.39953 23.1582 6.99519V1.13519C23.1582 0.730847 23.4964 0.402687 23.9131 0.402687C24.3297 0.402687 24.6679 0.730847 24.6679 1.13519V6.99519C24.6679 7.39953 24.3297 7.72769 23.9131 7.72769Z" fill="#110638"/>
<path d="M30.3293 30.0689C30.136 30.0689 29.9428 29.9971 29.7949 29.855L23.0012 23.2625C22.7068 22.9769 22.7068 22.5125 23.0012 22.2268C23.2956 21.9411 23.7742 21.9411 24.0685 22.2268L30.8622 28.8193C31.1566 29.105 31.1566 29.5694 30.8622 29.855C30.7158 29.9971 30.5225 30.0689 30.3293 30.0689Z" fill="white"/>
<path d="M23.5356 30.0689C23.3424 30.0689 23.1491 29.9971 23.0012 29.855C22.7068 29.5694 22.7068 29.105 23.0012 28.8193L29.7949 22.2268C30.0892 21.9411 30.5678 21.9411 30.8622 22.2268C31.1566 22.5125 31.1566 22.9769 30.8622 23.2625L24.0685 29.855C23.9221 29.9971 23.7289 30.0689 23.5356 30.0689Z" fill="white"/>
</svg>
