<svg width="18" height="18" viewBox="0 0 18 18" fill="none" xmlns="http://www.w3.org/2000/svg">
<path d="M10.195 13.83L15 9.00001L10.195 4.17001C10.1516 4.11302 10.0965 4.06603 10.0333 4.0322C9.9702 3.99837 9.90053 3.97851 9.82904 3.97395C9.75756 3.96938 9.68593 3.98024 9.61901 4.00576C9.55208 4.03129 9.49142 4.0709 9.44114 4.12191C9.39085 4.17292 9.35211 4.23414 9.32754 4.30142C9.30297 4.36871 9.29315 4.44048 9.29873 4.51189C9.30431 4.5833 9.32517 4.65268 9.35989 4.71533C9.39462 4.77798 9.4424 4.83243 9.5 4.87501L13.095 8.50001L3.53 8.50001C3.39739 8.50001 3.27021 8.55269 3.17645 8.64646C3.08268 8.74022 3.03 8.8674 3.03 9.00001C3.03 9.13262 3.08268 9.2598 3.17645 9.35356C3.27021 9.44733 3.39739 9.50001 3.53 9.50001L13.095 9.50001L9.5 13.125C9.40651 13.2192 9.35425 13.3466 9.35472 13.4793C9.35519 13.612 9.40835 13.739 9.5025 13.8325C9.59665 13.926 9.72409 13.9783 9.85677 13.9778C9.98945 13.9773 10.1165 13.9242 10.21 13.83L10.195 13.83Z" fill="white"/>
</svg>
