<svg width="21" height="20" viewBox="0 0 21 20" fill="none" xmlns="http://www.w3.org/2000/svg">
<path d="M6.33333 14.1667L9 8.49999L14.6667 5.83332L12 11.5L6.33333 14.1667ZM10.5 9.24999C10.3011 9.24999 10.1103 9.32901 9.96967 9.46966C9.82902 9.61031 9.75 9.80108 9.75 9.99999C9.75 10.1989 9.82902 10.3897 9.96967 10.5303C10.1103 10.671 10.3011 10.75 10.5 10.75C10.6989 10.75 10.8897 10.671 11.0303 10.5303C11.171 10.3897 11.25 10.1989 11.25 9.99999C11.25 9.80108 11.171 9.61031 11.0303 9.46966C10.8897 9.32901 10.6989 9.24999 10.5 9.24999ZM10.5 1.66666C11.5943 1.66666 12.678 1.8822 13.689 2.30099C14.7001 2.71978 15.6187 3.33361 16.3926 4.10743C17.1664 4.88125 17.7802 5.79991 18.199 6.81096C18.6178 7.82201 18.8333 8.90564 18.8333 9.99999C18.8333 12.2101 17.9554 14.3297 16.3926 15.8925C14.8298 17.4553 12.7101 18.3333 10.5 18.3333C9.40565 18.3333 8.32202 18.1178 7.31097 17.699C6.29993 17.2802 5.38127 16.6664 4.60744 15.8925C3.04464 14.3297 2.16667 12.2101 2.16667 9.99999C2.16667 7.78985 3.04464 5.67024 4.60744 4.10743C6.17025 2.54463 8.28986 1.66666 10.5 1.66666ZM10.5 3.33332C8.73189 3.33332 7.0362 4.0357 5.78596 5.28594C4.53571 6.53619 3.83333 8.23188 3.83333 9.99999C3.83333 11.7681 4.53571 13.4638 5.78596 14.714C7.0362 15.9643 8.73189 16.6667 10.5 16.6667C12.2681 16.6667 13.9638 15.9643 15.214 14.714C16.4643 13.4638 17.1667 11.7681 17.1667 9.99999C17.1667 8.23188 16.4643 6.53619 15.214 5.28594C13.9638 4.0357 12.2681 3.33332 10.5 3.33332Z" fill="white"/>
</svg>
