<svg width="24" height="24" viewBox="0 0 24 24" fill="none" xmlns="http://www.w3.org/2000/svg">
<g clip-path="url(#clip0_625_142)">
<path d="M21.5 24H2.5C1.121 24 0 22.879 0 21.5V4.5C0 3.121 1.121 2 2.5 2H21.5C22.879 2 24 3.121 24 4.5V21.5C24 22.879 22.879 24 21.5 24ZM2.5 3C1.673 3 1 3.673 1 4.5V21.5C1 22.327 1.673 23 2.5 23H21.5C22.327 23 23 22.327 23 21.5V4.5C23 3.673 22.327 3 21.5 3H2.5Z" fill="#F68F64"/>
<path d="M23.5 9H0.5C0.224 9 0 8.776 0 8.5C0 8.224 0.224 8 0.5 8H23.5C23.776 8 24 8.224 24 8.5C24 8.776 23.776 9 23.5 9Z" fill="#F68F64"/>
<path d="M5.5 5C5.224 5 5 4.776 5 4.5V0.5C5 0.224 5.224 0 5.5 0C5.776 0 6 0.224 6 0.5V4.5C6 4.776 5.776 5 5.5 5Z" fill="#F68F64"/>
<path d="M18.5 5C18.224 5 18 4.776 18 4.5V0.5C18 0.224 18.224 0 18.5 0C18.776 0 19 0.224 19 0.5V4.5C19 4.776 18.776 5 18.5 5Z" fill="#F68F64"/>
<path d="M12 21C9.243 21 7 18.757 7 16C7 13.243 9.243 11 12 11C14.757 11 17 13.243 17 16C17 18.757 14.757 21 12 21ZM12 12C9.794 12 8 13.794 8 16C8 18.206 9.794 20 12 20C14.206 20 16 18.206 16 16C16 13.794 14.206 12 12 12Z" fill="#F68F64"/>
<path d="M8.818 19.682C8.69 19.682 8.562 19.633 8.464 19.536C8.269 19.341 8.269 19.024 8.464 18.829L11.499 15.794V11.5C11.499 11.224 11.723 11 11.999 11C12.275 11 12.499 11.224 12.499 11.5V16C12.499 16.133 12.446 16.26 12.353 16.354L9.171 19.536C9.074 19.633 8.946 19.682 8.818 19.682Z" fill="#F68F64"/>
</g>
<defs>
<clipPath id="clip0_625_142">
<rect width="24" height="24" fill="white"/>
</clipPath>
</defs>
</svg>
