<svg width="80" height="80" viewBox="0 0 80 80" fill="none" xmlns="http://www.w3.org/2000/svg">
<g opacity="0.3">
<mask id="mask0_1_73" style="mask-type:alpha" maskUnits="userSpaceOnUse" x="0" y="0" width="80" height="80">
<rect width="80" height="80" fill="#D9D9D9"/>
</mask>
<g mask="url(#mask0_1_73)">
<path d="M48.3333 60C46 60 44.0278 59.1944 42.4167 57.5833C40.8056 55.9722 40 54 40 51.6667C40 49.3333 40.8056 47.3611 42.4167 45.75C44.0278 44.1389 46 43.3333 48.3333 43.3333C50.6667 43.3333 52.6389 44.1389 54.25 45.75C55.8611 47.3611 56.6667 49.3333 56.6667 51.6667C56.6667 54 55.8611 55.9722 54.25 57.5833C52.6389 59.1944 50.6667 60 48.3333 60ZM16.6667 73.3333C14.8333 73.3333 13.2639 72.6805 11.9583 71.375C10.6528 70.0694 10 68.5 10 66.6667V20C10 18.1667 10.6528 16.5972 11.9583 15.2917C13.2639 13.9861 14.8333 13.3333 16.6667 13.3333H20V6.66666H26.6667V13.3333H53.3333V6.66666H60V13.3333H63.3333C65.1667 13.3333 66.7361 13.9861 68.0417 15.2917C69.3472 16.5972 70 18.1667 70 20V66.6667C70 68.5 69.3472 70.0694 68.0417 71.375C66.7361 72.6805 65.1667 73.3333 63.3333 73.3333H16.6667ZM16.6667 66.6667H63.3333V33.3333H16.6667V66.6667ZM16.6667 26.6667H63.3333V20H16.6667V26.6667Z" fill="#222222"/>
</g>
</g>
</svg>
