<svg width="27" height="27" viewBox="0 0 27 27" fill="none" xmlns="http://www.w3.org/2000/svg">
<g clip-path="url(#clip0_625_87)">
<path d="M10.6875 21.375C4.79475 21.375 0 16.5803 0 10.6875C0 4.79475 4.79475 0 10.6875 0C16.5803 0 21.375 4.79475 21.375 10.6875C21.375 16.5803 16.5803 21.375 10.6875 21.375ZM10.6875 1.6875C5.72513 1.6875 1.6875 5.72513 1.6875 10.6875C1.6875 15.6499 5.72513 19.6875 10.6875 19.6875C15.6499 19.6875 19.6875 15.6499 19.6875 10.6875C19.6875 5.72513 15.6499 1.6875 10.6875 1.6875Z" fill="black"/>
<path d="M26.1563 27C26.0454 27.0003 25.9357 26.9785 25.8333 26.9361C25.731 26.8936 25.6381 26.8312 25.56 26.7525L17.055 18.2475C16.9766 18.1691 16.9145 18.0761 16.872 17.9737C16.8296 17.8713 16.8078 17.7615 16.8078 17.6507C16.8078 17.5399 16.8296 17.4301 16.872 17.3277C16.9145 17.2253 16.9766 17.1323 17.055 17.0539C17.1334 16.9755 17.2264 16.9133 17.3288 16.8709C17.4312 16.8285 17.541 16.8067 17.6518 16.8067C17.7627 16.8067 17.8724 16.8285 17.9748 16.8709C18.0772 16.9133 18.1703 16.9755 18.2486 17.0539L26.7536 25.5589C26.8719 25.6769 26.9525 25.8274 26.9852 25.9912C27.0179 26.1551 27.0012 26.325 26.9372 26.4793C26.8732 26.6337 26.7648 26.7656 26.6258 26.8583C26.4868 26.951 26.3234 27.0003 26.1563 27Z" fill="black"/>
</g>
<defs>
<clipPath id="clip0_625_87">
<rect width="27" height="27" fill="white"/>
</clipPath>
</defs>
</svg>
