<svg width="25" height="25" viewBox="0 0 25 25" fill="none" xmlns="http://www.w3.org/2000/svg">
<circle cx="12.5" cy="12.5" r="12.5" fill="#E63946"/>
<path d="M8.51238 7.09714L12.4997 11.0845L16.4664 7.1178C16.554 7.02454 16.6595 6.94994 16.7767 6.89846C16.8938 6.84699 17.0202 6.8197 17.1481 6.81824C17.4221 6.81824 17.6848 6.92707 17.8786 7.12079C18.0723 7.31451 18.1811 7.57726 18.1811 7.85122C18.1835 7.97787 18.16 8.10367 18.1121 8.22091C18.0641 8.33814 17.9927 8.44434 17.9022 8.53299L13.8839 12.4996L17.9022 16.518C18.0725 16.6845 18.1723 16.9101 18.1811 17.1481C18.1811 17.422 18.0723 17.6848 17.8786 17.8785C17.6848 18.0722 17.4221 18.1811 17.1481 18.1811C17.0165 18.1865 16.8851 18.1645 16.7624 18.1165C16.6397 18.0685 16.5283 17.9955 16.4354 17.9022L12.4997 13.9148L8.52271 17.8918C8.43543 17.982 8.33115 18.0539 8.21591 18.1036C8.10067 18.1532 7.97674 18.1796 7.85127 18.1811C7.5773 18.1811 7.31456 18.0722 7.12084 17.8785C6.92712 17.6848 6.81828 17.422 6.81828 17.1481C6.81587 17.0214 6.83937 16.8956 6.88733 16.7784C6.93529 16.6611 7.00671 16.5549 7.09719 16.4663L11.1155 12.4996L7.09719 8.48134C6.92694 8.31478 6.8271 8.08923 6.81828 7.85122C6.81828 7.57726 6.92712 7.31451 7.12084 7.12079C7.31456 6.92707 7.5773 6.81824 7.85127 6.81824C8.09918 6.82134 8.33677 6.92154 8.51238 7.09714Z" fill="white"/>
</svg>
