<svg width="22" height="27" viewBox="0 0 22 27" fill="none" xmlns="http://www.w3.org/2000/svg">
<path d="M10.9992 27C9.90528 26.9988 8.85654 26.554 8.08306 25.763C7.30957 24.9721 6.87452 23.8998 6.87335 22.7812C6.87335 22.5575 6.96029 22.3429 7.11504 22.1846C7.26978 22.0264 7.47967 21.9375 7.69851 21.9375C7.91736 21.9375 8.12724 22.0264 8.28199 22.1846C8.43674 22.3429 8.52367 22.5575 8.52367 22.7812C8.52367 24.1774 9.63379 25.3125 10.9992 25.3125C12.3645 25.3125 13.4746 24.1774 13.4746 22.7812C13.4746 22.5575 13.5616 22.3429 13.7163 22.1846C13.8711 22.0264 14.0809 21.9375 14.2998 21.9375C14.5186 21.9375 14.7285 22.0264 14.8833 22.1846C15.038 22.3429 15.125 22.5575 15.125 22.7812C15.1238 23.8998 14.6887 24.9721 13.9153 25.763C13.1418 26.554 12.093 26.9988 10.9992 27Z" fill="black"/>
<path d="M20.0759 23.625H1.92234C1.52925 23.6239 1.14589 23.5 0.823653 23.2698C0.501415 23.0396 0.255706 22.7141 0.119471 22.3371C-0.016765 21.9601 -0.0370142 21.5495 0.0614379 21.1604C0.15989 20.7712 0.372337 20.4222 0.670293 20.16C1.49361 19.4519 2.15542 18.5682 2.60929 17.5708C3.06316 16.5734 3.29809 15.4866 3.2976 14.3865V11.25C3.2976 6.9075 6.75228 3.375 10.9991 3.375C15.2459 3.375 18.7006 6.9075 18.7006 11.25V14.3865C18.6997 15.4844 18.9334 16.5692 19.3853 17.5651C19.8373 18.561 20.4965 19.4439 21.3169 20.1521C21.6183 20.4124 21.8342 20.7611 21.9355 21.1509C22.0368 21.5408 22.0184 21.9531 21.8831 22.3319C21.7477 22.7108 21.5017 23.038 21.1785 23.2693C20.8553 23.5006 20.4704 23.6247 20.0759 23.625ZM10.9991 5.0625C9.39477 5.06429 7.85664 5.71676 6.7222 6.87675C5.58777 8.03674 4.94967 9.60952 4.94793 11.25V14.3865C4.94895 15.7297 4.66295 17.057 4.10993 18.2754C3.55691 19.4938 2.75022 20.5739 1.7463 21.4403C1.71533 21.4666 1.6904 21.4997 1.67329 21.537C1.65618 21.5743 1.6473 21.615 1.64728 21.6562C1.64728 21.8092 1.77271 21.9375 1.92234 21.9375H20.0759C20.2255 21.9375 20.3509 21.8092 20.3509 21.6562C20.3509 21.5437 20.2904 21.474 20.2541 21.4425C19.2496 20.576 18.4424 19.4956 17.889 18.2768C17.3356 17.058 17.0494 15.7303 17.0503 14.3865V11.25C17.0503 7.83787 14.3361 5.0625 10.9991 5.0625Z" fill="black"/>
<path d="M10.9991 5.0625C10.7803 5.0625 10.5704 4.97361 10.4156 4.81537C10.2609 4.65714 10.174 4.44253 10.174 4.21875V0.84375C10.174 0.619974 10.2609 0.405362 10.4156 0.247129C10.5704 0.0888948 10.7803 0 10.9991 0C11.218 0 11.4278 0.0888948 11.5826 0.247129C11.7373 0.405362 11.8243 0.619974 11.8243 0.84375V4.21875C11.8243 4.44253 11.7373 4.65714 11.5826 4.81537C11.4278 4.97361 11.218 5.0625 10.9991 5.0625Z" fill="black"/>
</svg>
