<svg width="29" height="27" viewBox="0 0 29 27" fill="none" xmlns="http://www.w3.org/2000/svg">
<path d="M1 22.418V21.0794C1 18.5942 1.98723 16.2108 3.74452 14.4535C5.50181 12.6962 7.88521 11.709 10.3704 11.709" stroke="#F68F64" stroke-width="1.5625" stroke-linecap="round" stroke-linejoin="round"/>
<path d="M19.4782 12.128C19.6812 11.9052 19.9284 11.7273 20.2041 11.6055C20.4798 11.4837 20.7778 11.4208 21.0792 11.4208C21.3806 11.4208 21.6786 11.4837 21.9543 11.6055C22.23 11.7273 22.4772 11.9052 22.6802 12.128C23.1152 12.6059 23.7377 12.8642 24.3829 12.8335C24.6841 12.8193 24.9849 12.8683 25.2661 12.9771C25.5473 13.0859 25.8027 13.2522 26.0159 13.4655C26.2291 13.6787 26.3954 13.934 26.5043 14.2152C26.6131 14.4964 26.662 14.7972 26.6479 15.0984C26.6171 15.7423 26.8755 16.3661 27.352 16.8011C28.2957 17.6605 28.2957 19.1437 27.352 20.0031C26.8755 20.4382 26.6171 21.0607 26.6479 21.7059C26.662 22.0071 26.6131 22.3079 26.5043 22.5891C26.3954 22.8703 26.2291 23.1256 26.0159 23.3388C25.8027 23.552 25.5473 23.7184 25.2661 23.8272C24.9849 23.936 24.6841 23.9849 24.3829 23.9708C24.0648 23.9558 23.7473 24.0111 23.453 24.1328C23.1586 24.2545 22.8948 24.4396 22.6802 24.6749C22.4772 24.8977 22.23 25.0757 21.9543 25.1974C21.6786 25.3192 21.3806 25.3821 21.0792 25.3821C20.7778 25.3821 20.4798 25.3192 20.2041 25.1974C19.9284 25.0757 19.6812 24.8977 19.4782 24.6749C19.2636 24.4396 18.9998 24.2545 18.7054 24.1328C18.4111 24.0111 18.0936 23.9558 17.7755 23.9708C17.4743 23.9849 17.1735 23.936 16.8923 23.8272C16.6111 23.7184 16.3557 23.552 16.1425 23.3388C15.9293 23.1256 15.763 22.8703 15.6541 22.5891C15.5453 22.3079 15.4964 22.0071 15.5105 21.7059C15.5254 21.3876 15.4699 21.07 15.3479 20.7757C15.226 20.4814 15.0406 20.2176 14.8051 20.0031C14.5823 19.8002 14.4043 19.5529 14.2826 19.2772C14.1608 19.0016 14.0979 18.7035 14.0979 18.4021C14.0979 18.1008 14.1608 17.8027 14.2826 17.527C14.4043 17.2514 14.5823 17.0041 14.8051 16.8011C15.2829 16.3661 15.5413 15.7436 15.5105 15.0984C15.4964 14.7972 15.5453 14.4964 15.6541 14.2152C15.763 13.934 15.9293 13.6787 16.1425 13.4655C16.3557 13.2522 16.6111 13.0859 16.8923 12.9771C17.1735 12.8683 17.4743 12.8193 17.7755 12.8335C18.4193 12.8642 19.0431 12.6059 19.4782 12.128Z" stroke="#F68F64" stroke-width="1.5625"/>
<path d="M18.8895 18.4021L20.3486 19.8612L23.2695 16.943M10.3705 11.709C11.7906 11.709 13.1525 11.1449 14.1567 10.1407C15.1609 9.13655 15.725 7.77461 15.725 6.35451C15.725 4.9344 15.1609 3.57246 14.1567 2.5683C13.1525 1.56413 11.7906 1 10.3705 1C8.95039 1 7.58845 1.56413 6.58429 2.5683C5.58012 3.57246 5.01599 4.9344 5.01599 6.35451C5.01599 7.77461 5.58012 9.13655 6.58429 10.1407C7.58845 11.1449 8.95039 11.709 10.3705 11.709Z" stroke="#F68F64" stroke-width="1.5625" stroke-linecap="round" stroke-linejoin="round"/>
</svg>
