<svg width="25" height="28" viewBox="0 0 25 28" fill="none" xmlns="http://www.w3.org/2000/svg">
<circle cx="12.5" cy="13.6364" r="12.5" fill="#FFB703"/>
<path d="M10.872 17.1V5.66666H13.7887V17.1H10.872ZM12.342 22.3033C11.852 22.3033 11.4359 22.1322 11.0937 21.79C10.7592 21.4478 10.592 21.0278 10.592 20.53C10.592 20.0478 10.7592 19.6394 11.0937 19.305C11.4359 18.9706 11.852 18.8033 12.342 18.8033C12.8242 18.8033 13.2326 18.9706 13.567 19.305C13.9015 19.6394 14.0687 20.0478 14.0687 20.53C14.0687 21.0278 13.9015 21.4478 13.567 21.79C13.2326 22.1322 12.8242 22.3033 12.342 22.3033Z" fill="white"/>
</svg>
