<svg width="25" height="25" viewBox="0 0 25 25" fill="none" xmlns="http://www.w3.org/2000/svg">
<path d="M11.7688 2.28646C12.1798 2.13266 12.629 2.11261 13.0521 2.22917L13.2312 2.28646L20.5229 5.02084C20.8926 5.15947 21.2153 5.40032 21.4534 5.71532C21.6915 6.03031 21.8352 6.40649 21.8677 6.8L21.875 6.97188V12.5583C21.875 14.2463 21.4192 15.9029 20.5558 17.3533C19.6925 18.8038 18.4535 19.9942 16.9698 20.799L16.6927 20.9438L13.199 22.6906C13.0066 22.7867 12.7965 22.842 12.5817 22.8531C12.367 22.8642 12.1523 22.8309 11.951 22.7552L11.801 22.6906L8.30729 20.9438C6.79751 20.1888 5.51956 19.0403 4.60834 17.6194C3.69712 16.1985 3.18644 14.5579 3.13021 12.8708L3.125 12.5583V6.97188C3.12501 6.57722 3.23711 6.19068 3.44826 5.85726C3.65942 5.52385 3.96093 5.25726 4.31771 5.08854L4.47708 5.02084L11.7688 2.28646ZM12.5 4.2375L5.20833 6.97188V12.5583C5.20836 13.8656 5.55985 15.1489 6.226 16.2737C6.89214 17.3986 7.84845 18.3237 8.99479 18.9521L9.23958 19.0802L12.5 20.7104L15.7604 19.0802C16.9299 18.4956 17.9207 17.6072 18.629 16.5082C19.3373 15.4092 19.7371 14.1399 19.7865 12.8333L19.7917 12.5583V6.97188L12.5 4.2375ZM16.076 8.98854C16.2635 8.80172 16.515 8.69326 16.7796 8.68518C17.0441 8.6771 17.3018 8.77002 17.5003 8.94505C17.6988 9.12009 17.8232 9.36412 17.8483 9.62758C17.8734 9.89104 17.7973 10.1542 17.6354 10.3635L17.549 10.4615L12.0969 15.9146C11.8983 16.1132 11.6337 16.2319 11.3533 16.2482C11.0729 16.2645 10.7963 16.1773 10.576 16.0031L10.476 15.9146L7.97187 13.4104C7.78307 13.2234 7.67288 12.9713 7.66387 12.7057C7.65486 12.4401 7.74771 12.1811 7.9234 11.9817C8.0991 11.7823 8.34436 11.6576 8.60898 11.6331C8.87361 11.6086 9.13758 11.6862 9.34687 11.85L9.44479 11.9365L11.2865 13.7781L16.076 8.98854Z" fill="#F68F64"/>
</svg>
