<svg width="25" height="25" viewBox="0 0 25 25" fill="none" xmlns="http://www.w3.org/2000/svg">
<g clip-path="url(#clip0_625_228)">
<path d="M13.9635 25.0031C12.6042 25.0031 11.2104 24.6417 10.0969 24.2938C7.90833 23.6115 5.88541 22.3854 4.25 20.749C2.05 18.55 0.548955 15.6115 0.13333 12.6875C-0.0552115 11.3656 -0.162503 9.675 0.67083 8.31667C1.45312 7.04167 2.86979 6.25 4.36666 6.25C4.62187 6.25 4.86458 6.27708 5.1 6.31563C5.11354 6.31667 5.125 6.31875 5.13854 6.32083C6.01979 6.475 6.72083 7.22396 6.84375 8.14271L7.39583 12.275C7.52083 13.201 7.02916 14.1167 6.20104 14.501C6.15104 14.5229 6.10104 14.5458 6.05 14.5667C6.50104 15.5188 7.10833 16.3792 7.86354 17.1344C8.61875 17.8896 9.47916 18.4979 10.4312 18.9479C10.4531 18.8969 10.475 18.8458 10.4979 18.7958C10.8823 17.9688 11.7917 17.4708 12.7229 17.601L16.8552 18.1542C17.775 18.276 18.525 18.9781 18.6781 19.8594C18.6802 19.8729 18.6823 19.8844 18.6833 19.8979C18.7229 20.1323 18.75 20.3771 18.75 20.6323C18.75 22.0438 18.0604 23.3719 16.9052 24.1833C16.0417 24.7875 15.0135 25.0031 13.9635 25.0031ZM4.36666 7.8125C3.40833 7.8125 2.50208 8.31771 2.00104 9.13333C1.42812 10.0667 1.52812 11.4063 1.67812 12.4677C2.04687 15.0635 3.3875 17.6792 5.35312 19.6448C6.81041 21.1031 8.61146 22.1958 10.5615 22.8031C11.5167 23.101 14.4292 24.0083 16.0062 22.9042C16.7333 22.3938 17.1865 21.5229 17.1865 20.6323C17.1865 20.4594 17.1646 20.2927 17.1385 20.1333C17.1365 20.126 17.1354 20.1188 17.1344 20.1115C17.0906 19.9031 16.8927 19.7354 16.6469 19.7021L12.5156 19.149C12.2635 19.1219 12.0146 19.2417 11.9135 19.4552C11.8156 19.6656 11.7448 19.8969 11.701 20.1396C11.6615 20.3677 11.5219 20.5646 11.3219 20.6813C11.1229 20.7969 10.8802 20.8156 10.6625 20.7375C9.18646 20.1948 7.87187 19.3552 6.75833 18.2396C5.64271 17.126 4.80208 15.8115 4.26041 14.3354C4.18125 14.1177 4.20104 13.876 4.31771 13.675C4.43437 13.474 4.63229 13.3354 4.86041 13.2958C5.09896 13.2552 5.32812 13.1833 5.54166 13.0844C5.75625 12.9844 5.88125 12.7375 5.84687 12.4833L5.29479 8.35104C5.26354 8.10521 5.09687 7.90833 4.88646 7.86458C4.87916 7.86354 4.87187 7.8625 4.86562 7.86146C4.70625 7.83438 4.53958 7.8125 4.36666 7.8125Z" fill="#F68F64"/>
<path d="M13.802 13.5417H11.1979C10.7666 13.5417 10.4166 13.1917 10.4166 12.7604V11.0677C10.4166 9.99062 11.2927 9.11458 12.3698 9.11458C12.7291 9.11458 13.0208 8.82292 13.0208 8.46354C13.0208 8.10417 12.7291 7.8125 12.3698 7.8125H11.1979C10.7666 7.8125 10.4166 7.4625 10.4166 7.03125C10.4166 6.6 10.7666 6.25 11.1979 6.25H12.3698C13.5906 6.25 14.5833 7.24271 14.5833 8.46354C14.5833 9.68437 13.5906 10.6771 12.3698 10.6771C12.1541 10.6771 11.9791 10.8521 11.9791 11.0677V11.9792H13.802C14.2333 11.9792 14.5833 12.3292 14.5833 12.7604C14.5833 13.1917 14.2333 13.5417 13.802 13.5417Z" fill="#F68F64"/>
<path d="M19.0104 10.6771H17.4479C16.4427 10.6771 15.625 9.85938 15.625 8.85417V7.03125C15.625 6.6 15.975 6.25 16.4062 6.25C16.8375 6.25 17.1875 6.6 17.1875 7.03125V8.85417C17.1875 8.99792 17.3042 9.11458 17.4479 9.11458H19.0104C19.4417 9.11458 19.7917 9.46458 19.7917 9.89583C19.7917 10.3271 19.4417 10.6771 19.0104 10.6771Z" fill="#F68F64"/>
<path d="M19.0104 13.5417C18.5791 13.5417 18.2291 13.1917 18.2291 12.7604V7.03125C18.2291 6.6 18.5791 6.25 19.0104 6.25C19.4416 6.25 19.7916 6.6 19.7916 7.03125V12.7604C19.7916 13.1917 19.4416 13.5417 19.0104 13.5417Z" fill="#F68F64"/>
<path d="M19.7583 18.75C19.4906 18.75 19.2302 18.6125 19.0854 18.3667C18.8656 17.9958 18.9886 17.5167 19.3604 17.2969C19.9354 16.9573 20.4719 16.5385 20.9552 16.0542C24.2625 12.7437 24.2625 7.35833 20.9563 4.04896C19.3552 2.44583 17.2271 1.5625 14.9615 1.5625C12.6958 1.5625 10.5667 2.44583 8.96564 4.04792C8.48543 4.52812 8.06043 5.07708 7.70314 5.67813C7.48231 6.04792 7.00314 6.17083 6.63126 5.95C6.26147 5.72917 6.1396 5.25 6.35939 4.87917C6.78439 4.16667 7.2896 3.51458 7.86147 2.94271C9.75626 1.04583 12.2781 0 14.9604 0C17.6427 0 20.1656 1.04583 22.0594 2.94271C25.975 6.8625 25.975 13.2385 22.0594 17.1573C21.4833 17.7344 20.8417 18.2333 20.1542 18.6406C20.0302 18.7156 19.8938 18.75 19.7583 18.75Z" fill="#F68F64"/>
</g>
<defs>
<clipPath id="clip0_625_228">
<rect width="25" height="25" fill="white"/>
</clipPath>
</defs>
</svg>
