<svg width="21" height="21" viewBox="0 0 21 21" fill="none" xmlns="http://www.w3.org/2000/svg">
<g clip-path="url(#clip0_115_1787)">
<path d="M7.57531 15.9312C7.65565 16.0217 7.73732 16.1169 7.82205 16.2091C8.09097 16.493 8.23651 16.8719 8.22685 17.2628C8.22378 17.658 8.22685 18.0531 8.22685 18.4483C8.22685 18.8342 8.06353 19.019 7.66136 19.0678C7.66136 19.1771 7.66487 19.2873 7.66136 19.401C7.6517 19.6754 7.52526 19.8791 7.27368 19.9915C7.19036 20.0271 7.10086 20.0461 7.01026 20.0473C6.67614 20.0534 6.34203 20.0512 6.00835 20.0495C5.92197 20.0511 5.83614 20.0354 5.75592 20.0033C5.67571 19.9712 5.60275 19.9234 5.54135 19.8626C5.47995 19.8018 5.43136 19.7293 5.39846 19.6494C5.36556 19.5695 5.34901 19.4839 5.34978 19.3975C5.34978 19.3325 5.34978 19.2658 5.34978 19.2025C5.34978 19.0454 5.36647 19.0599 5.21148 19.0599H2.87708C2.88378 19.1634 2.88275 19.2673 2.874 19.3707C2.85469 19.4963 2.83449 19.6306 2.77478 19.7395C2.66063 19.9476 2.46438 20.0468 2.22641 20.049C1.88923 20.0519 1.55262 20.0519 1.21661 20.049C1.13114 20.0493 1.04646 20.0327 0.967463 20.0001C0.888463 19.9674 0.816705 19.9195 0.756332 19.859C0.695959 19.7985 0.648167 19.7267 0.615715 19.6476C0.583263 19.5685 0.566794 19.4838 0.567258 19.3984C0.567258 19.289 0.567258 19.1788 0.567258 19.0669C0.523354 19.062 0.49262 19.0594 0.461009 19.0555C0.219095 19.0225 0.0136214 18.8359 0.00879187 18.5923C-0.00130618 18.0768 -0.000867136 17.561 0.0175728 17.0464C0.0285489 16.7465 0.166409 16.4853 0.363102 16.2587C0.441691 16.1683 0.519841 16.0765 0.602821 15.9905M7.15251 16.307C7.10633 16.3694 7.05694 16.4293 7.00455 16.4866C6.71566 16.7751 6.36574 16.6644 5.95786 16.6653C4.73863 16.6684 3.5194 16.6653 2.30017 16.6653C1.87693 16.6653 1.51516 16.7781 1.21705 16.4774C1.16743 16.4273 1.12616 16.3689 1.07523 16.307C0.963716 16.4326 0.873273 16.5336 0.784147 16.6359C0.640418 16.7981 0.562168 17.0079 0.564624 17.2246C0.564624 17.6107 0.564624 17.9966 0.564624 18.3824C0.564624 18.4167 0.568136 18.4513 0.569892 18.486H7.66268V18.3828C7.66268 17.9968 7.66268 17.6109 7.66268 17.2251C7.66209 17.1831 7.6593 17.1412 7.65434 17.0995C7.61658 16.7663 7.37598 16.5621 7.15031 16.3075L7.15251 16.307ZM1.13055 19.0664C1.12596 19.1775 1.12757 19.2888 1.13538 19.3997C1.14304 19.4201 1.15563 19.4382 1.17202 19.4526C1.18842 19.4669 1.20811 19.4769 1.22934 19.4818C1.55599 19.4882 1.88293 19.4882 2.21017 19.4818C2.23178 19.477 2.25183 19.4668 2.26849 19.4523C2.28514 19.4377 2.29785 19.4191 2.30544 19.3984C2.31325 19.2877 2.31486 19.1768 2.31027 19.066L1.13055 19.0664ZM5.91615 19.0664C5.91615 19.1819 5.91615 19.286 5.91615 19.3887C5.91507 19.4026 5.91714 19.4166 5.92221 19.4296C5.92728 19.4426 5.93522 19.4542 5.94543 19.4637C5.95565 19.4732 5.96787 19.4803 5.9812 19.4844C5.99453 19.4885 6.00861 19.4896 6.0224 19.4875C6.34642 19.4875 6.67043 19.4875 6.99401 19.4844C7.02826 19.4844 7.08797 19.4405 7.09016 19.4146C7.10114 19.3005 7.09499 19.1845 7.09499 19.0664H5.91615Z" fill="#F68F64"/>
<path d="M17.0724 0.948323C19.0363 0.942176 20.5848 2.35942 20.749 4.19726C20.799 4.75397 20.6568 5.26283 20.439 5.76158C20.1317 6.46406 19.7062 7.09409 19.2211 7.68636C18.6354 8.40113 18.0594 9.1238 17.4794 9.84295C17.4632 9.86315 17.4465 9.88291 17.4298 9.90266C17.288 10.0677 17.0939 10.0638 16.9569 9.89388C16.4441 9.25727 15.9312 8.62065 15.4181 7.98403C15.051 7.5305 14.6757 7.08311 14.3784 6.57909C14.115 6.12775 13.8832 5.66104 13.7339 5.15702C13.5666 4.5924 13.6127 4.02735 13.7862 3.47898C14.1633 2.29927 14.9483 1.50898 16.1245 1.11384C16.4306 1.01217 16.75 0.956387 17.0724 0.948323ZM17.1945 9.28536C17.2221 9.25419 17.2384 9.23531 17.2555 9.21556C17.8198 8.51689 18.384 7.81837 18.948 7.11999C19.3522 6.62425 19.6862 6.07527 19.9407 5.4885C20.0724 5.17809 20.1931 4.8611 20.1962 4.51689C20.2094 2.91217 18.898 1.5564 17.2941 1.51338C16.6669 1.49349 16.0492 1.67079 15.528 2.02032C15.0067 2.36985 14.6082 2.87401 14.3885 3.46186C14.1532 4.08399 14.1251 4.70787 14.3885 5.33746C14.6314 5.92903 14.9535 6.48483 15.3461 6.98959C15.8075 7.57484 16.2799 8.15175 16.748 8.73217L17.1945 9.28536Z" fill="#F68F64"/>
<path d="M4.12208 13.7246C4.66943 13.7246 5.21706 13.7246 5.76499 13.7246C6.27297 13.7246 6.63782 13.9783 6.81256 14.453C6.89071 14.6655 6.96886 14.8784 7.04481 15.0922C7.10672 15.2678 7.04481 15.4215 6.89246 15.4794C6.74011 15.5374 6.58206 15.4614 6.51664 15.2863C6.43629 15.0707 6.36078 14.8534 6.28043 14.6378C6.19262 14.3998 6.03281 14.2892 5.77685 14.2888C4.6646 14.2888 3.55235 14.2888 2.4401 14.2888C2.1916 14.2888 2.02959 14.4038 1.94442 14.6356C1.86495 14.8512 1.78724 15.0676 1.70909 15.2841C1.6463 15.4575 1.4922 15.5378 1.3337 15.479C1.17521 15.4202 1.11682 15.2665 1.17828 15.0935C1.25555 14.8772 1.33385 14.6611 1.41317 14.4451C1.57957 13.9898 1.95188 13.7268 2.4379 13.725C3.00076 13.7246 3.56142 13.7246 4.12208 13.7246Z" fill="#F68F64"/>
<path d="M12.3811 5.40159C12.3184 5.34231 12.2538 5.28436 12.1923 5.22333C12.0677 5.09908 12.0606 4.92083 12.1735 4.80624C12.2863 4.69165 12.4628 4.6956 12.5901 4.82205C12.8638 5.09425 13.1367 5.36705 13.4089 5.64043C13.4291 5.66062 13.4476 5.68433 13.4726 5.71067C13.4471 5.73877 13.4243 5.76512 13.3997 5.78926L12.5945 6.59447C12.4628 6.72619 12.296 6.73541 12.1783 6.62169C12.0606 6.50798 12.0646 6.32885 12.1937 6.19758C12.2521 6.13743 12.3144 6.08167 12.375 6.02196L12.3658 5.99079H12.2384C11.817 5.99079 11.3955 5.99079 10.974 5.99079C10.8936 5.99079 10.8655 5.96839 10.8695 5.88673C10.8752 5.7638 10.8748 5.64043 10.8695 5.51749C10.866 5.44373 10.8928 5.4231 10.9643 5.42354C11.4034 5.42617 11.8398 5.42354 12.2775 5.42354H12.3653L12.3811 5.40159Z" fill="#F68F64"/>
<path d="M5.92173 10.3948L5.56215 10.8031C5.54214 10.7906 5.52294 10.7768 5.50464 10.7619C4.8847 10.1749 4.55893 9.45395 4.5203 8.60176C4.51722 8.52625 4.53917 8.49815 4.6182 8.5021C4.74728 8.50869 4.8768 8.50517 5.00632 8.5021C5.05725 8.5021 5.08271 8.51439 5.08535 8.57191C5.0944 8.90961 5.17137 9.24203 5.31167 9.54933C5.45198 9.85664 5.65273 10.1325 5.90197 10.3606C5.9097 10.3713 5.91632 10.3828 5.92173 10.3948Z" fill="#F68F64"/>
<path d="M11.3397 16.6148C11.3397 16.7869 11.3397 16.9546 11.3397 17.1223C11.3397 17.1386 11.3129 17.1592 11.2936 17.1689C11.2748 17.1734 11.2552 17.1742 11.2361 17.1711C10.5196 17.1711 9.80307 17.1711 9.08479 17.1733C8.99391 17.1733 8.96712 17.1461 8.97108 17.0582C8.97722 16.9134 8.97108 16.768 8.97108 16.6148H11.3397Z" fill="#F68F64"/>
<path d="M14.6781 16.6073V17.1711H14.5679C13.8549 17.1711 13.1415 17.1711 12.428 17.1733C12.338 17.1733 12.309 17.1482 12.3143 17.0587C12.3212 16.9417 12.3212 16.8244 12.3143 16.7074C12.3099 16.6253 12.3389 16.6038 12.4188 16.6043C13.0835 16.6073 13.7482 16.6043 14.413 16.6043L14.6781 16.6073Z" fill="#F68F64"/>
<path d="M15.6014 11.5816H15.4803C14.7708 11.5816 14.0613 11.5816 13.3518 11.5816C13.2591 11.5816 13.2258 11.5583 13.2319 11.4626C13.2403 11.3401 13.2359 11.2167 13.2319 11.0934C13.2319 11.0354 13.2521 11.0148 13.3114 11.0152C14.0469 11.0152 14.7823 11.0152 15.5176 11.0152C15.5615 11.0152 15.6014 11.0152 15.6006 11.0797C15.6001 11.2431 15.6014 11.4051 15.6014 11.5816Z" fill="#F68F64"/>
<path d="M9.89795 11.5732V11.0249H12.2495V11.5732H9.89795Z" fill="#F68F64"/>
<path d="M9.89267 5.43671C9.89267 5.60706 9.8953 5.76863 9.89003 5.92976C9.89003 5.95127 9.85184 5.97366 9.82813 5.99166C9.82022 5.99825 9.8031 5.99166 9.78993 5.99166C9.0778 5.99166 8.36567 5.99166 7.65353 5.99166C7.55431 5.99166 7.52182 5.964 7.5284 5.86654C7.53631 5.72472 7.5306 5.58247 7.5306 5.4332L9.89267 5.43671Z" fill="#F68F64"/>
<path d="M5.23292 7.64204L4.71924 7.45457C4.80441 6.84298 5.84495 5.77522 6.47542 5.65448L6.67694 6.16465C5.98676 6.4531 5.50733 6.94396 5.23292 7.64204Z" fill="#F68F64"/>
<path d="M19.0849 16.9476L18.8733 16.4251C19.556 16.1283 20.0293 15.6348 20.2984 14.9302L20.8301 15.1168C20.507 15.9764 19.9327 16.5784 19.0849 16.9476Z" fill="#F68F64"/>
<path d="M18.0352 16.6223C18.0352 16.7869 18.0352 16.9511 18.0325 17.1153C18.0325 17.1351 17.9974 17.1566 17.975 17.1715C17.9636 17.179 17.9434 17.1715 17.9272 17.1715C17.2177 17.1715 16.5082 17.1715 15.7987 17.1715C15.652 17.1715 15.6604 17.1948 15.6613 17.028C15.6613 16.9116 15.6613 16.7948 15.6613 16.6767C15.6613 16.6284 15.6753 16.6065 15.7275 16.6065C16.4824 16.6082 17.237 16.6094 17.9913 16.61C17.9943 16.6105 17.9973 16.6116 18.0001 16.6131L18.0352 16.6223Z" fill="#F68F64"/>
<path d="M16.5787 11.5754C16.5787 11.4025 16.5761 11.2378 16.5822 11.0732C16.5822 11.0539 16.6322 11.0209 16.6599 11.02C16.8546 11.0157 17.0491 11.0157 17.2434 11.02C17.5999 11.0262 17.9577 11.02 18.312 11.0499C18.5474 11.0701 18.7783 11.1447 19.0294 11.1987C18.9539 11.3981 18.8889 11.5684 18.827 11.7313C18.6361 11.6874 18.4582 11.6338 18.2765 11.6119C18.0669 11.5919 17.8565 11.5827 17.646 11.5842C17.3317 11.5803 17.0169 11.5842 16.7025 11.5842C16.6643 11.5811 16.6265 11.5781 16.5787 11.5754Z" fill="#F68F64"/>
<path d="M19.5903 12.1703L19.9416 11.7686C20.1464 11.9427 20.3261 12.1444 20.4754 12.3679C20.7926 12.8349 20.9749 13.3803 21.0023 13.9441C21.0076 14.0429 20.9755 14.0683 20.8851 14.0635C20.7815 14.0578 20.6778 14.0635 20.5738 14.0635C20.4421 14.0635 20.4421 14.0635 20.4351 13.9357C20.4162 13.5252 20.289 13.1269 20.0663 12.7815C19.9253 12.5716 19.7572 12.3824 19.5903 12.1703Z" fill="#F68F64"/>
<path d="M6.47119 11.3621L6.67096 10.8541C6.81716 10.8927 6.95502 10.9419 7.09683 10.9643C7.26894 10.9939 7.44296 11.0111 7.61754 11.0157C8.00917 11.0227 8.40124 11.0214 8.79287 11.0157C8.89472 11.0157 8.92019 11.046 8.91492 11.1417C8.90702 11.2835 8.91273 11.4257 8.91273 11.5702C8.89168 11.5755 8.87025 11.5792 8.84862 11.5812C8.34372 11.5781 7.83882 11.5926 7.33392 11.5627C7.06654 11.5469 6.80399 11.4543 6.53924 11.395C6.51545 11.3865 6.49264 11.3754 6.47119 11.3621Z" fill="#F68F64"/>
<path d="M2.62335 17.6865V18.2349H1.42212V17.6865H2.62335Z" fill="#F68F64"/>
<path d="M6.69668 17.6786C6.69668 17.8586 6.69931 18.0263 6.69317 18.1932C6.69317 18.2107 6.63916 18.2397 6.61019 18.2402C6.32217 18.2437 6.03416 18.2402 5.74614 18.2402H5.48535C5.48535 18.1084 5.48535 17.9855 5.48535 17.8613C5.48535 17.6764 5.48535 17.6764 5.66843 17.6764H6.69668V17.6786Z" fill="#F68F64"/>
<path d="M17.1939 5.8314C16.9289 5.83069 16.67 5.75161 16.4498 5.6041C16.2296 5.45659 16.0579 5.24725 15.9564 5.00242C15.8549 4.75758 15.8281 4.48819 15.8794 4.22816C15.9306 3.96812 16.0576 3.72905 16.2444 3.54103C16.4312 3.35301 16.6695 3.22444 16.9292 3.17151C17.1889 3.11857 17.4584 3.14364 17.7039 3.24354C17.9494 3.34345 18.1598 3.51373 18.3088 3.73297C18.4577 3.9522 18.5385 4.21059 18.5409 4.47562C18.543 4.65351 18.5097 4.83003 18.4428 4.99489C18.376 5.15976 18.277 5.30966 18.1516 5.43586C18.0262 5.56206 17.877 5.66204 17.7125 5.72994C17.5481 5.79785 17.3718 5.83234 17.1939 5.8314ZM17.1939 5.26722C17.3481 5.26826 17.4991 5.22353 17.6278 5.13868C17.7566 5.05383 17.8572 4.93268 17.917 4.79059C17.9768 4.64849 17.9932 4.49184 17.9639 4.34047C17.9346 4.1891 17.8611 4.04982 17.7526 3.94028C17.6441 3.83074 17.5055 3.75586 17.3544 3.72513C17.2033 3.6944 17.0465 3.7092 16.9039 3.76766C16.7612 3.82611 16.6391 3.9256 16.553 4.0535C16.4669 4.18141 16.4208 4.33198 16.4203 4.48616C16.42 4.69213 16.5011 4.88987 16.6461 5.03621C16.791 5.18255 16.988 5.2656 17.1939 5.26722Z" fill="#F68F64"/>
<path d="M0.587891 16.945C0.587891 16.945 0.819707 16.5472 1.34612 16.6249C1.87254 16.7026 1.47784 16.2904 1.47784 16.2904L0.907077 16.0708L0.608526 16.2574L0.587891 16.945Z" fill="#F68F64"/>
<path d="M7.64856 17.0143C7.64856 17.0143 7.3882 16.585 6.79637 16.6688C6.20453 16.7527 6.64885 16.3075 6.64885 16.3075L7.2881 16.0708L7.62397 16.2724L7.64856 17.0143Z" fill="#F68F64"/>
<path d="M0.0554199 16.7979C0.0554199 16.7979 0.290748 15.904 0.852727 15.8961C1.41471 15.8882 7.44237 15.832 7.44237 15.832C7.63243 15.9566 7.7928 16.1215 7.91215 16.315C8.10093 16.6271 7.17938 16.6873 7.17938 16.6873H0.848776L0.476904 17.0144L0.0554199 16.7979Z" fill="#F68F64"/>
<path d="M0.563671 17.1772C0.563671 17.1772 0.576404 16.6943 1.1037 16.6872C1.63099 16.6802 1.61958 16.5419 1.61958 16.5419L1.04618 16.3483L0.563232 16.4761L0.563671 17.1772Z" fill="#F68F64"/>
<path d="M7.66272 17.3853C7.66272 17.3853 7.76501 16.8146 7.01073 16.6872C6.25645 16.5599 6.9541 16.329 6.9541 16.329L7.50159 16.4374L7.78038 16.6284L7.85546 16.9204L7.66272 17.3853Z" fill="#F68F64"/>
</g>
<defs>
<clipPath id="clip0_115_1787">
<rect width="21" height="19.1033" fill="white" transform="translate(0 0.948334)"/>
</clipPath>
</defs>
</svg>
