<svg width="38" height="36" viewBox="0 0 38 36" fill="none" xmlns="http://www.w3.org/2000/svg">
<path d="M27.1773 35.826C21.7372 35.826 17.3112 31.5309 17.3112 26.252C17.3112 20.9731 21.7372 16.6781 27.1773 16.6781C32.6173 16.6781 37.0434 20.9731 37.0434 26.252C37.0434 31.5309 32.6173 35.826 27.1773 35.826Z" fill="#6FC45D"/>
<path d="M13.5166 28.4614H4.4094C2.31627 28.4614 0.614746 26.8088 0.614746 24.7791V7.10412C0.614746 5.07444 2.31627 3.42183 4.4094 3.42183H27.1773C29.2705 3.42183 30.972 5.07444 30.972 7.10412V12.9958C30.972 13.4038 30.632 13.7322 30.2131 13.7322C29.7941 13.7322 29.4541 13.4038 29.4541 12.9958V7.10412C29.4541 5.88602 28.4326 4.89475 27.1773 4.89475H4.4094C3.15413 4.89475 2.13261 5.88602 2.13261 7.10412V24.7791C2.13261 25.9972 3.15413 26.9885 4.4094 26.9885H13.5166C13.9355 26.9885 14.2755 27.3184 14.2755 27.7249C14.2755 28.1315 13.9355 28.4614 13.5166 28.4614Z" fill="#110638"/>
<path d="M30.2131 10.7864H1.37368C0.954747 10.7864 0.614746 10.4565 0.614746 10.05C0.614746 9.64343 0.954747 9.31349 1.37368 9.31349H30.2131C30.632 9.31349 30.972 9.64343 30.972 10.05C30.972 10.4565 30.632 10.7864 30.2131 10.7864Z" fill="#110638"/>
<path d="M7.44497 7.84057C7.02604 7.84057 6.68604 7.51063 6.68604 7.10411V1.21244C6.68604 0.805916 7.02604 0.475983 7.44497 0.475983C7.8639 0.475983 8.2039 0.805916 8.2039 1.21244V7.10411C8.2039 7.51063 7.8639 7.84057 7.44497 7.84057Z" fill="#110638"/>
<path d="M24.1415 7.84057C23.7226 7.84057 23.3826 7.51063 23.3826 7.10411V1.21244C23.3826 0.805916 23.7226 0.475983 24.1415 0.475983C24.5604 0.475983 24.9004 0.805916 24.9004 1.21244V7.10411C24.9004 7.51063 24.5604 7.84057 24.1415 7.84057Z" fill="#110638"/>
<path d="M25.6594 29.9343C25.4575 29.9343 25.2648 29.8562 25.1221 29.7193L22.0864 26.7734C21.7904 26.4862 21.7904 26.0193 22.0864 25.7321C22.3824 25.4449 22.8635 25.4449 23.1595 25.7321L25.6215 28.1211L30.3997 22.8216C30.6759 22.5138 31.1556 22.4843 31.4698 22.7524C31.7855 23.0204 31.8174 23.4859 31.5411 23.7922L26.2286 29.6839C26.0905 29.8371 25.8932 29.9284 25.6837 29.9343C25.6761 29.9343 25.6685 29.9343 25.6594 29.9343Z" fill="white"/>
</svg>
