<svg xmlns="http://www.w3.org/2000/svg" width="26" height="37" viewBox="0 0 26 37" fill="none">
  <path d="M12.665 0.0214844C19.6488 0.0214844 25.33 5.77139 25.33 12.8403C25.33 20.262 14.221 35.071 13.7488 35.6988C13.2349 36.3773 12.0969 36.3773 11.583 35.6988C11.109 35.071 0 20.262 0 12.8403C0 5.7732 5.68116 0.0214844 12.665 0.0214844Z" fill="#F68F64"/>
  <path d="M12.6665 19.9086C9.17456 19.9086 6.33398 17.0681 6.33398 13.5761C6.33398 10.0842 9.17456 7.24365 12.6665 7.24365C16.1584 7.24365 18.999 10.0842 18.999 13.5761C18.999 17.0681 16.1584 19.9086 12.6665 19.9086Z" fill="white"/>
</svg>