<svg width="14" height="14" viewBox="0 0 14 14" fill="none" xmlns="http://www.w3.org/2000/svg">
<mask id="mask0_6_98" style="mask-type:luminance" maskUnits="userSpaceOnUse" x="0" y="0" width="14" height="14">
<path d="M7 13C7.78808 13.001 8.56859 12.8463 9.29668 12.5447C10.0248 12.2431 10.6861 11.8006 11.2426 11.2426C11.8006 10.6861 12.2431 10.0248 12.5447 9.29668C12.8463 8.56859 13.001 7.78808 13 7C13.001 6.21192 12.8463 5.43142 12.5447 4.70333C12.2431 3.97524 11.8006 3.31393 11.2426 2.7574C10.6861 2.19941 10.0248 1.7569 9.29668 1.45531C8.56859 1.15372 7.78808 0.998984 7 1.00001C6.21192 0.999 5.43142 1.15374 4.70333 1.45533C3.97524 1.75693 3.31393 2.19943 2.7574 2.7574C2.19943 3.31393 1.75693 3.97524 1.45533 4.70333C1.15374 5.43142 0.999 6.21192 1.00001 7C0.998984 7.78808 1.15372 8.56859 1.45531 9.29668C1.7569 10.0248 2.19941 10.6861 2.7574 11.2426C3.31393 11.8006 3.97524 12.2431 4.70333 12.5447C5.43142 12.8463 6.21192 13.001 7 13Z" fill="white" stroke="white" stroke-width="1.66667" stroke-linejoin="round"/>
<path d="M4.6001 6.99995L6.4001 8.79995L10.0001 5.19995" stroke="black" stroke-width="1.66667" stroke-linecap="round" stroke-linejoin="round"/>
</mask>
<g mask="url(#mask0_6_98)">
<path d="M-0.199951 -0.200012H14.2V14.2H-0.199951V-0.200012Z" fill="#6A994E"/>
</g>
</svg>
