<svg width="32" height="32" viewBox="0 0 32 32" fill="none" xmlns="http://www.w3.org/2000/svg">
<path fill-rule="evenodd" clip-rule="evenodd" d="M14 23.016L13.936 16H11.5V14H16.302L16.362 21.016H18.6V23.016H14ZM13.5 10.612C13.4857 10.1886 13.6338 9.77575 13.914 9.458C14.1887 9.15133 14.582 8.99867 15.094 9C15.606 9 16.002 9.15333 16.282 9.46C16.562 9.76533 16.7013 10.1493 16.7 10.612C16.7 11.068 16.56 11.4467 16.28 11.748C16 12.0493 15.6047 12.2 15.094 12.2C14.5833 12.2 14.19 12.0493 13.914 11.748C13.6327 11.4381 13.4841 11.0302 13.5 10.612ZM15 26C17.6522 26 20.1957 24.9464 22.0711 23.0711C23.9464 21.1957 25 18.6522 25 16C25 13.3478 23.9464 10.8043 22.0711 8.92893C20.1957 7.05357 17.6522 6 15 6C12.3478 6 9.8043 7.05357 7.92893 8.92893C6.05357 10.8043 5 13.3478 5 16C5 18.6522 6.05357 21.1957 7.92893 23.0711C9.8043 24.9464 12.3478 26 15 26ZM15 28C13.4241 28 11.8637 27.6896 10.4078 27.0866C8.95189 26.4835 7.62902 25.5996 6.51472 24.4853C5.40042 23.371 4.5165 22.0481 3.91345 20.5922C3.31039 19.1363 3 17.5759 3 16C3 14.4241 3.31039 12.8637 3.91345 11.4078C4.5165 9.95189 5.40042 8.62902 6.51472 7.51472C7.62902 6.40042 8.95189 5.5165 10.4078 4.91345C11.8637 4.31039 13.4241 4 15 4C18.1826 4 21.2348 5.26428 23.4853 7.51472C25.7357 9.76515 27 12.8174 27 16C27 19.1826 25.7357 22.2348 23.4853 24.4853C21.2348 26.7357 18.1826 28 15 28Z" fill="#F68F64"/>
</svg>
