<svg width="24" height="24" viewBox="0 0 24 24" fill="none" xmlns="http://www.w3.org/2000/svg">
<path d="M12 24C11.882 24 11.764 23.958 11.669 23.875C11.315 23.563 3 16.144 3 9C3 4.037 7.038 0 12 0C16.962 0 21 4.037 21 9C21 16.144 12.685 23.563 12.331 23.875C12.236 23.958 12.118 24 12 24ZM12 1C7.589 1 4 4.589 4 9C4 14.918 10.451 21.358 12 22.819C13.549 21.358 20 14.918 20 9C20 4.589 16.411 1 12 1Z" fill="#F68F64"/>
<path d="M12 14C9.243 14 7 11.757 7 9C7 6.243 9.243 4 12 4C14.757 4 17 6.243 17 9C17 11.757 14.757 14 12 14Z" fill="#F68F64"/>
</svg>
