<svg width="173" height="173" viewBox="0 0 173 173" fill="none" xmlns="http://www.w3.org/2000/svg">
<circle cx="86.5" cy="86.5" r="86.5" fill="#F1F1F1"/>
<g clip-path="url(#clip0_99_356)">
<path d="M108.54 96.1719C105.54 92.922 101.9 90.3285 97.8492 88.5546C93.7981 86.7808 89.4235 85.865 85.001 85.865C80.5786 85.865 76.204 86.7808 72.1529 88.5546C68.1018 90.3285 64.4618 92.922 61.4624 96.1719C60.9993 96.6839 60.7402 97.3482 60.7344 98.0385V109.239C60.7442 109.975 61.0435 110.677 61.5676 111.194C62.0916 111.711 62.7982 112.001 63.5344 112.001H106.468C107.21 112.001 107.922 111.706 108.448 111.181C108.973 110.656 109.268 109.944 109.268 109.201V98.0012C109.253 97.3238 108.994 96.6743 108.54 96.1719Z" fill="#777777"/>
<path d="M85.0012 82.1346C92.2178 82.1346 98.0679 76.2844 98.0679 69.0679C98.0679 61.8514 92.2178 56.0012 85.0012 56.0012C77.7847 56.0012 71.9346 61.8514 71.9346 69.0679C71.9346 76.2844 77.7847 82.1346 85.0012 82.1346Z" fill="#777777"/>
</g>
<defs>
<clipPath id="clip0_99_356">
<rect width="67.2" height="67.2" fill="white" transform="translate(51.4014 50.4012)"/>
</clipPath>
</defs>
</svg>
