<svg width="29" height="21" viewBox="0 0 29 21" fill="none" xmlns="http://www.w3.org/2000/svg">
<path d="M7.32084 7.71214H13.8174L15.1817 2.49802H13.1973V1.1142H15.6351C15.6351 1.1142 16.2894 0.608645 15.6351 0H9.81212L7.31871 2.43062C7.31871 2.43062 3.20649 2.2958 2.00469 3.13838C0.802889 3.98295 -0.815899 5.70381 0.475716 7.15505" fill="#F68F64"/>
<path d="M12.143 2.3969V0.97937H10.0494L8.5675 2.35527L12.143 2.3969Z" fill="#F68F64"/>
<path d="M4.08112 9.9404C2.60987 9.9404 1.41235 8.83017 1.41235 7.46618C1.41235 6.10218 2.60987 4.99194 4.08112 4.99194C5.55236 4.99194 6.74988 6.10218 6.74988 7.46618C6.74988 8.83017 5.55236 9.9404 4.08112 9.9404Z" fill="#F68F64"/>
<path d="M4.08108 5.29154C5.37697 5.29154 6.42908 6.26696 6.42908 7.46839C6.42908 8.66982 5.37697 9.64524 4.08108 9.64524C2.78519 9.64524 1.73308 8.66982 1.73308 7.46839C1.73308 6.26696 2.78519 5.29154 4.08108 5.29154ZM4.08108 4.69678C2.43235 4.69678 1.09155 5.93984 1.09155 7.46839C1.09155 8.99694 2.43235 10.24 4.08108 10.24C5.72982 10.24 7.07061 8.99694 7.07061 7.46839C7.07061 5.93984 5.72982 4.69678 4.08108 4.69678Z" fill="#F68F64"/>
<path d="M15.3699 9.5249V10.2842L17.2817 11.4995C17.2817 11.4995 17.9468 12.0051 17.2817 12.0051C16.6167 12.0051 14.598 11.9377 14.6707 12.0051C14.7434 12.0725 13.4069 17.1934 13.4069 17.1934H20.8315H26.6908C26.6908 17.1934 28.0915 17.3124 28.0915 16.6879C28.0915 16.0634 28.0915 15.4389 28.0915 15.4389H28.4999V14.2414H28.1001C28.1001 14.2414 27.9461 12.808 24.8518 12.3104C21.7575 11.8128 19.6746 11.7533 19.6746 11.7533L15.3699 9.5249Z" fill="#F68F64"/>
<path d="M23.6671 20.4605C22.1958 20.4605 20.9983 19.3503 20.9983 17.9863C20.9983 16.6223 22.1958 15.5121 23.6671 15.5121C25.1383 15.5121 26.3358 16.6223 26.3358 17.9863C26.3358 19.3503 25.1404 20.4605 23.6671 20.4605Z" fill="#F68F64"/>
<path d="M23.667 15.81C24.9629 15.81 26.015 16.7854 26.015 17.9868C26.015 19.1882 24.9629 20.1637 23.667 20.1637C22.3711 20.1637 21.319 19.1882 21.319 17.9868C21.3212 16.7854 22.3711 15.81 23.667 15.81ZM23.667 15.2152C22.0183 15.2152 20.6775 16.4583 20.6775 17.9868C20.6775 19.5154 22.0183 20.7584 23.667 20.7584C25.3158 20.7584 26.6566 19.5154 26.6566 17.9868C26.6566 16.4583 25.3158 15.2152 23.667 15.2152Z" fill="#F68F64"/>
<path d="M25.1083 9.80381L24.3107 9.78001V9.63529C24.4497 6.82204 22.7625 5.31529 21.1009 4.52029L20.5962 6.20546L17.6067 3.38429L21.736 2.39697L21.272 3.94535C23.2008 4.67295 25.2837 6.27684 25.1083 9.80381Z" fill="#F68F64"/>
<path d="M3.5625 11.1368L4.35158 11.0277L4.37938 11.1705C4.78783 13.9619 6.74022 15.1613 8.52795 15.6669L8.69689 13.9242L12.1847 16.2022L8.31411 17.8616L8.47021 16.2617C6.43228 15.8671 4.07359 14.636 3.5625 11.1368Z" fill="#F68F64"/>
</svg>
