<svg width="27" height="29" viewBox="0 0 27 29" fill="none" xmlns="http://www.w3.org/2000/svg">
<path d="M19.6337 29.0069H2.82156C1.27596 29.0069 0.0195312 27.6578 0.0195312 26.0009V7.96454C0.0195312 6.3076 1.27596 4.95848 2.82156 4.95848H12.9088C13.2182 4.95848 13.4693 5.22782 13.4693 5.55969C13.4693 5.89156 13.2182 6.1609 12.9088 6.1609H2.82156C1.89465 6.1609 1.14034 6.97013 1.14034 7.96454V26.0009C1.14034 26.9953 1.89465 27.8045 2.82156 27.8045H19.6337C20.5606 27.8045 21.3149 26.9953 21.3149 26.0009V15.1791C21.3149 14.8472 21.566 14.5779 21.8753 14.5779C22.1847 14.5779 22.4357 14.8472 22.4357 15.1791V26.0009C22.4357 27.6578 21.1793 29.0069 19.6337 29.0069Z" fill="#110638"/>
<path d="M9.84909 19.0629C9.70226 19.0629 9.5588 19.0004 9.45232 18.8873C9.32007 18.7455 9.26179 18.541 9.29877 18.3438L10.0957 14.0873C10.1181 13.9706 10.1708 13.8648 10.2492 13.7806L20.5483 2.73039C20.7669 2.49592 21.1222 2.49592 21.3408 2.73039C21.5593 2.96486 21.5593 3.34603 21.3408 3.5805L11.1616 14.5021L10.563 17.6957L13.5388 17.0548L23.7202 6.13324C23.9388 5.89877 24.2941 5.89877 24.5126 6.13324C24.7312 6.36772 24.7312 6.74888 24.5126 6.98336L14.2124 18.0336C14.1351 18.1178 14.0353 18.1743 13.9266 18.1983L9.95893 19.0521C9.92194 19.0593 9.88496 19.0629 9.84909 19.0629Z" fill="#110638"/>
<path d="M24.118 7.41022L20.1515 3.15365L22.1409 1.03258C23.1922 -0.107321 25.0382 -0.112131 26.0951 1.03618C26.6253 1.60613 26.9189 2.35885 26.9189 3.15485C26.9189 3.95085 26.6253 4.70357 26.094 5.27592L24.118 7.41022Z" fill="#F68F64"/>
</svg>
