<svg width="328" height="102" viewBox="0 0 328 102" fill="none" xmlns="http://www.w3.org/2000/svg">
<mask id="path-1-inside-1_40_37" fill="white">
<path fill-rule="evenodd" clip-rule="evenodd" d="M0 8C0 3.58172 3.58172 0 8 0H320C324.418 0 328 3.58172 328 8V37.3882C323.787 40.1855 321 45.0396 321 50.5593C321 56.079 323.787 60.9331 328 63.7305V94C328 98.4183 324.418 102 320 102H7.99999C3.58171 102 0 98.4183 0 94V63.7306C4.21329 60.9332 7.00012 56.0791 7.00012 50.5593C7.00012 45.0396 4.21329 40.1854 0 37.3881V8Z"/>
</mask>
<path fill-rule="evenodd" clip-rule="evenodd" d="M0 8C0 3.58172 3.58172 0 8 0H320C324.418 0 328 3.58172 328 8V37.3882C323.787 40.1855 321 45.0396 321 50.5593C321 56.079 323.787 60.9331 328 63.7305V94C328 98.4183 324.418 102 320 102H7.99999C3.58171 102 0 98.4183 0 94V63.7306C4.21329 60.9332 7.00012 56.0791 7.00012 50.5593C7.00012 45.0396 4.21329 40.1854 0 37.3881V8Z" fill="white"/>
<path d="M328 37.3882L328.553 38.2213L329 37.9246V37.3882H328ZM328 63.7305H329V63.1941L328.553 62.8974L328 63.7305ZM0 63.7306L-0.553123 62.8975L-1 63.1942V63.7306H0ZM0 37.3881H-1V37.9245L-0.553123 38.2212L0 37.3881ZM8 -1C3.02944 -1 -1 3.02944 -1 8H1C1 4.13401 4.13401 1 8 1V-1ZM320 -1H8V1H320V-1ZM329 8C329 3.02944 324.971 -1 320 -1V1C323.866 1 327 4.13401 327 8H329ZM329 37.3882V8H327V37.3882H329ZM322 50.5593C322 45.3823 324.613 40.8376 328.553 38.2213L327.447 36.5551C322.961 39.5335 320 44.697 320 50.5593H322ZM328.553 62.8974C324.613 60.2811 322 55.7364 322 50.5593H320C320 56.4217 322.961 61.5852 327.447 64.5636L328.553 62.8974ZM329 94V63.7305H327V94H329ZM320 103C324.971 103 329 98.9706 329 94H327C327 97.866 323.866 101 320 101V103ZM7.99999 103H320V101H7.99999V103ZM-1 94C-1 98.9706 3.02943 103 7.99999 103V101C4.134 101 1 97.866 1 94H-1ZM-1 63.7306V94H1V63.7306H-1ZM6.00012 50.5593C6.00012 55.7364 3.38748 60.2812 -0.553123 62.8975L0.553123 64.5637C5.03909 61.5853 8.00012 56.4217 8.00012 50.5593H6.00012ZM-0.553123 38.2212C3.38748 40.8375 6.00012 45.3822 6.00012 50.5593H8.00012C8.00012 44.6969 5.03909 39.5334 0.553123 36.555L-0.553123 38.2212ZM-1 8V37.3881H1V8H-1Z" fill="#D9D9D9" mask="url(#path-1-inside-1_40_37)"/>
</svg>
