<svg width="328" height="80" viewBox="0 0 328 80" fill="none" xmlns="http://www.w3.org/2000/svg">
<mask id="path-1-inside-1_25_282" fill="white">
<path fill-rule="evenodd" clip-rule="evenodd" d="M0 8C0 3.58172 3.58172 0 8 0H320C324.418 0 328 3.58172 328 8V29.3241C323.787 31.5181 321 35.3252 321 39.6544C321 43.9836 323.787 47.7907 328 49.9847V72C328 76.4183 324.418 80 320 80H7.99999C3.58171 80 0 76.4183 0 72V49.9848C4.21329 47.7908 7.00012 43.9836 7.00012 39.6544C7.00012 35.3252 4.21329 31.518 0 29.324V8Z"/>
</mask>
<path fill-rule="evenodd" clip-rule="evenodd" d="M0 8C0 3.58172 3.58172 0 8 0H320C324.418 0 328 3.58172 328 8V29.3241C323.787 31.5181 321 35.3252 321 39.6544C321 43.9836 323.787 47.7907 328 49.9847V72C328 76.4183 324.418 80 320 80H7.99999C3.58171 80 0 76.4183 0 72V49.9848C4.21329 47.7908 7.00012 43.9836 7.00012 39.6544C7.00012 35.3252 4.21329 31.518 0 29.324V8Z" fill="white"/>
<path d="M328 29.3241L328.462 30.211L329 29.9308V29.3241H328ZM328 49.9847H329V49.378L328.462 49.0978L328 49.9847ZM0 49.9848L-0.461864 49.0978L-1 49.3781V49.9848H0ZM0 29.324H-1V29.9307L-0.461864 30.211L0 29.324ZM8 -1C3.02944 -1 -1 3.02944 -1 8H1C1 4.13401 4.13401 1 8 1V-1ZM320 -1H8V1H320V-1ZM329 8C329 3.02944 324.971 -1 320 -1V1C323.866 1 327 4.13401 327 8H329ZM329 29.3241V8H327V29.3241H329ZM322 39.6544C322 35.7872 324.492 32.2783 328.462 30.211L327.538 28.4371C323.082 30.7579 320 34.8632 320 39.6544H322ZM328.462 49.0978C324.492 47.0305 322 43.5216 322 39.6544H320C320 44.4456 323.082 48.5509 327.538 50.8717L328.462 49.0978ZM329 72V49.9847H327V72H329ZM320 81C324.971 81 329 76.9706 329 72H327C327 75.866 323.866 79 320 79V81ZM7.99999 81H320V79H7.99999V81ZM-1 72C-1 76.9706 3.02943 81 7.99999 81V79C4.134 79 1 75.866 1 72H-1ZM-1 49.9848V72H1V49.9848H-1ZM6.00012 39.6544C6.00012 43.5216 3.50802 47.0306 -0.461864 49.0978L0.461864 50.8717C4.91856 48.551 8.00012 44.4456 8.00012 39.6544H6.00012ZM-0.461864 30.211C3.50802 32.2782 6.00012 35.7872 6.00012 39.6544H8.00012C8.00012 34.8632 4.91856 30.7578 0.461864 28.4371L-0.461864 30.211ZM-1 8V29.324H1V8H-1Z" fill="#D9D9D9" mask="url(#path-1-inside-1_25_282)"/>
</svg>
