<svg width="16" height="17" viewBox="0 0 16 17" fill="none" xmlns="http://www.w3.org/2000/svg">
<path d="M5.6667 14.5C5.63737 14.5 5.60804 14.496 5.57937 14.488C5.52337 14.4734 0 12.914 0 7.60665V2.85995C0 2.72129 0.0853339 2.59729 0.214668 2.54862L5.54804 0.521939C5.6247 0.492606 5.70804 0.492606 5.78471 0.521939L11.1181 2.54862C11.2481 2.59729 11.3334 2.72195 11.3334 2.85995V6.20664C11.3334 6.39064 11.1841 6.53998 11.0001 6.53998C10.8161 6.53998 10.6667 6.39064 10.6667 6.20664V3.08996L5.6667 1.18994L0.666671 3.08996V7.60665C0.666671 12.056 4.98937 13.604 5.66604 13.818C5.71604 13.802 5.78671 13.7794 5.87471 13.75C6.05071 13.692 6.23804 13.7854 6.29671 13.9607C6.35471 14.1354 6.26004 14.324 6.08604 14.382C5.87871 14.4514 5.76137 14.486 5.76137 14.486C5.73004 14.4954 5.69804 14.5 5.6667 14.5Z" fill="#F68F64"/>
<path d="M11.6669 16.5C9.27751 16.5 7.3335 14.556 7.3335 12.1667C7.3335 9.77733 9.27751 7.83331 11.6669 7.83331C14.0562 7.83331 16.0002 9.77733 16.0002 12.1667C16.0002 14.556 14.0562 16.5 11.6669 16.5Z" fill="#F68F64"/>
<g clip-path="url(#clip0_105_288)">
<path fill-rule="evenodd" clip-rule="evenodd" d="M11.0737 9.91555C11.114 9.87976 11.166 9.85999 11.2199 9.85999H13.3221C13.8254 9.85999 14.2793 10.1626 14.4728 10.6272L14.9429 11.7554C14.9541 11.7822 14.9599 11.8109 14.9599 11.84V12.8667C14.9599 13.0979 14.8409 13.3014 14.6608 13.4193C14.6646 13.3822 14.6665 13.3447 14.6665 13.3067C14.6665 12.6991 14.1741 12.2067 13.5665 12.2067C12.959 12.2067 12.4665 12.6991 12.4665 13.3067C12.4665 13.382 12.4741 13.4556 12.4885 13.5267H10.8312C10.8456 13.4556 10.8532 13.382 10.8532 13.3067C10.8532 12.6991 10.3607 12.2067 9.7532 12.2067C9.14568 12.2067 8.6532 12.6991 8.6532 13.3067C8.6532 13.3187 8.65339 13.3308 8.65378 13.3428C8.47429 13.1948 8.35986 12.9708 8.35986 12.72V12.0172C8.35986 11.6392 8.62246 11.3118 8.99154 11.2298L9.79639 11.0509L11.0737 9.91555ZM9.67986 13.3067C9.67986 13.2662 9.7127 13.2333 9.7532 13.2333C9.7937 13.2333 9.82653 13.2662 9.82653 13.3067C9.82653 13.3472 9.7937 13.38 9.7532 13.38C9.7127 13.38 9.67986 13.3472 9.67986 13.3067ZM13.4932 13.3067C13.4932 13.2662 13.526 13.2333 13.5665 13.2333C13.607 13.2333 13.6399 13.2662 13.6399 13.3067C13.6399 13.3472 13.607 13.38 13.5665 13.38C13.526 13.38 13.4932 13.3472 13.4932 13.3067Z" fill="white"/>
<path fill-rule="evenodd" clip-rule="evenodd" d="M14.1259 10.1538C13.9055 9.96796 13.6226 9.86005 13.3221 9.86005H11.2198C11.1659 9.86005 11.1139 9.87982 11.0737 9.91562L9.79635 11.051L8.9915 11.2299C8.82472 11.2669 8.67969 11.3541 8.5708 11.4734H13.4198C13.5078 11.4734 13.5874 11.4209 13.6221 11.34L14.0621 10.3134L14.0641 10.3084L14.1259 10.1538Z" fill="#ECEFF1"/>
<path fill-rule="evenodd" clip-rule="evenodd" d="M9.81618 11.0334H9.89983H13.2748L13.6566 10.1425L13.7406 9.93237C13.8816 9.98265 14.0121 10.0578 14.1259 10.1538L14.0641 10.3084L14.0621 10.3134L13.6221 11.34C13.5874 11.4209 13.5078 11.4734 13.4198 11.4734H9.89983H8.5708C8.67969 11.3541 8.82472 11.2669 8.9915 11.2299L9.79635 11.051L9.81618 11.0334Z" fill="#ECEFF1"/>
<path fill-rule="evenodd" clip-rule="evenodd" d="M12.5281 9.86005L12.4597 10.1334L12.1664 11.3067C12.1369 11.4246 12.0175 11.4963 11.8996 11.4668C11.7817 11.4373 11.7101 11.3179 11.7395 11.2L12.0329 10.0267L12.0745 9.86005H12.5281Z" fill="#ECEFF1"/>
<path fill-rule="evenodd" clip-rule="evenodd" d="M8.35986 12.2067H8.57986H9.45986C9.58136 12.2067 9.67986 12.1082 9.67986 11.9867C9.67986 11.8652 9.58136 11.7667 9.45986 11.7667H8.57986H8.39969C8.37377 11.846 8.35986 11.9303 8.35986 12.0173V12.2067Z" fill="#ECEFF1"/>
<path d="M13.9331 11.6934C13.9331 11.5719 14.0316 11.4734 14.1531 11.4734H14.5931C14.7146 11.4734 14.8131 11.5719 14.8131 11.6934C14.8131 11.8149 14.7146 11.9134 14.5931 11.9134H14.1531C14.0316 11.9134 13.9331 11.8149 13.9331 11.6934Z" fill="#ECEFF1"/>
<path d="M9.75344 12.5C9.30794 12.5 8.94678 12.8612 8.94678 13.3067C8.94678 13.7522 9.30794 14.1133 9.75344 14.1133C10.199 14.1133 10.5601 13.7522 10.5601 13.3067C10.5601 12.8612 10.199 12.5 9.75344 12.5Z" fill="#ECEFF1"/>
<path d="M13.5669 12.5C13.1214 12.5 12.7603 12.8612 12.7603 13.3067C12.7603 13.7522 13.1214 14.1133 13.5669 14.1133C14.0124 14.1133 14.3736 13.7522 14.3736 13.3067C14.3736 12.8612 14.0124 12.5 13.5669 12.5Z" fill="#ECEFF1"/>
<path d="M9.75344 12.94C9.55094 12.94 9.38678 13.1041 9.38678 13.3067C9.38678 13.5092 9.55094 13.6733 9.75344 13.6733C9.95595 13.6733 10.1201 13.5092 10.1201 13.3067C10.1201 13.1041 9.95595 12.94 9.75344 12.94ZM8.94678 13.3067C8.94678 12.8612 9.30794 12.5 9.75344 12.5C10.199 12.5 10.5601 12.8612 10.5601 13.3067C10.5601 13.7522 10.199 14.1133 9.75344 14.1133C9.30794 14.1133 8.94678 13.7522 8.94678 13.3067Z" fill="#607D8B"/>
<path d="M13.5664 12.94C13.3639 12.94 13.1998 13.1041 13.1998 13.3067C13.1998 13.5092 13.3639 13.6733 13.5664 13.6733C13.7689 13.6733 13.9331 13.5092 13.9331 13.3067C13.9331 13.1041 13.7689 12.94 13.5664 12.94ZM12.7598 13.3067C12.7598 12.8612 13.1209 12.5 13.5664 12.5C14.0119 12.5 14.3731 12.8612 14.3731 13.3067C14.3731 13.7522 14.0119 14.1133 13.5664 14.1133C13.1209 14.1133 12.7598 13.7522 12.7598 13.3067Z" fill="#607D8B"/>
<path d="M9.75296 12.94C9.55045 12.94 9.38629 13.1041 9.38629 13.3067C9.38629 13.5092 9.55045 13.6733 9.75296 13.6733C9.95546 13.6733 10.1196 13.5092 10.1196 13.3067C10.1196 13.1041 9.95546 12.94 9.75296 12.94ZM8.94629 13.3067C8.94629 12.8612 9.30745 12.5 9.75296 12.5C10.1985 12.5 10.5596 12.8612 10.5596 13.3067C10.5596 13.7522 10.1985 14.1133 9.75296 14.1133C9.30745 14.1133 8.94629 13.7522 8.94629 13.3067Z" fill="#ECEFF1"/>
<path d="M13.5664 12.94C13.3639 12.94 13.1998 13.1041 13.1998 13.3067C13.1998 13.5092 13.3639 13.6733 13.5664 13.6733C13.7689 13.6733 13.9331 13.5092 13.9331 13.3067C13.9331 13.1041 13.7689 12.94 13.5664 12.94ZM12.7598 13.3067C12.7598 12.8612 13.1209 12.5 13.5664 12.5C14.0119 12.5 14.3731 12.8612 14.3731 13.3067C14.3731 13.7522 14.0119 14.1133 13.5664 14.1133C13.1209 14.1133 12.7598 13.7522 12.7598 13.3067Z" fill="#ECEFF1"/>
<path fill-rule="evenodd" clip-rule="evenodd" d="M11.0737 9.91562C11.114 9.87982 11.166 9.86005 11.2199 9.86005H13.3221C13.8254 9.86005 14.2793 10.1627 14.4728 10.6272L14.9429 11.7554C14.9541 11.7822 14.9599 11.811 14.9599 11.84V12.8667C14.9599 13.2312 14.6644 13.5267 14.2999 13.5267V13.0867C14.4214 13.0867 14.5199 12.9882 14.5199 12.8667V11.884L14.0667 10.7965C13.9414 10.4959 13.6477 10.3 13.3221 10.3H11.3035L10.046 11.4178C10.018 11.4427 9.98415 11.46 9.94759 11.4681L9.08699 11.6594C8.91922 11.6967 8.79986 11.8455 8.79986 12.0173V12.72C8.79986 12.9226 8.96402 13.0867 9.16653 13.0867V13.5267C8.72102 13.5267 8.35986 13.1656 8.35986 12.72V12.0173C8.35986 11.6392 8.62246 11.3119 8.99154 11.2299L9.79639 11.051L11.0737 9.91562Z" fill="#ECEFF1"/>
<path fill-rule="evenodd" clip-rule="evenodd" d="M10.1196 13.3067C10.1196 13.1852 10.2181 13.0867 10.3396 13.0867H12.9796C13.1011 13.0867 13.1996 13.1852 13.1996 13.3067C13.1996 13.4282 13.1011 13.5267 12.9796 13.5267H10.3396C10.2181 13.5267 10.1196 13.4282 10.1196 13.3067Z" fill="#ECEFF1"/>
<path fill-rule="evenodd" clip-rule="evenodd" d="M13.9463 10.0244C14.058 10.0723 14.1098 10.2016 14.0619 10.3133L13.6219 11.34C13.5872 11.4209 13.5077 11.4733 13.4197 11.4733H9.89969C9.77819 11.4733 9.67969 11.3748 9.67969 11.2533C9.67969 11.1318 9.77819 11.0333 9.89969 11.0333H13.2746L13.6575 10.14C13.7053 10.0283 13.8347 9.97657 13.9463 10.0244Z" fill="#ECEFF1"/>
<path fill-rule="evenodd" clip-rule="evenodd" d="M12.2997 9.86654C12.4175 9.89601 12.4892 10.0155 12.4597 10.1333L12.1664 11.3067C12.1369 11.4245 12.0175 11.4962 11.8996 11.4667C11.7817 11.4373 11.7101 11.3178 11.7395 11.1999L12.0329 10.0266C12.0623 9.90874 12.1818 9.83708 12.2997 9.86654Z" fill="#ECEFF1"/>
<path fill-rule="evenodd" clip-rule="evenodd" d="M8.35986 11.9867C8.35986 11.8652 8.45836 11.7667 8.57986 11.7667H9.45986C9.58136 11.7667 9.67986 11.8652 9.67986 11.9867C9.67986 12.1082 9.58136 12.2067 9.45986 12.2067H8.57986C8.45836 12.2067 8.35986 12.1082 8.35986 11.9867Z" fill="#ECEFF1"/>
<path d="M13.9331 11.6933C13.9331 11.5718 14.0316 11.4733 14.1531 11.4733H14.5931C14.7146 11.4733 14.8131 11.5718 14.8131 11.6933C14.8131 11.8148 14.7146 11.9133 14.5931 11.9133H14.1531C14.0316 11.9133 13.9331 11.8148 13.9331 11.6933Z" fill="#ECEFF1"/>
</g>
<path d="M2.56478 3.02274C2.57694 3.02274 2.5891 3.02274 2.60127 3.02274L6.48479 2.99995C6.48479 2.99995 7.83202 2.98286 8.63183 4.2334C9.43469 5.48395 8.67441 6.72025 8.67441 6.72025C8.67441 6.72025 8.44328 7.15039 7.92021 7.5492C7.39713 7.95085 7.02612 8.02492 6.83148 7.99358L6.77066 7.98503C6.68247 7.97079 6.6034 7.93091 6.54562 7.86824L5.539 6.80001C5.539 6.80001 5.25922 6.45533 5.71539 6.44393C6.17156 6.42969 6.17156 6.42969 6.17156 6.42969L6.39964 6.4069C6.39964 6.4069 7.38193 6.22459 7.10214 5.23327C7.10214 5.23327 6.91359 4.70058 5.98301 4.70627C5.04938 4.71197 3.67175 4.72052 3.67175 4.72052C3.67175 4.72052 3.45887 4.74331 3.2764 4.53536C3.13955 4.37868 3.06352 4.30747 3.03007 4.27044C3.02094 4.25619 3.00574 4.2448 2.99053 4.23055C2.951 4.19352 2.85976 4.09097 3.15171 4.09667C3.51057 4.10237 4.55063 4.08812 4.55063 4.08812C4.55063 4.08812 4.80609 4.11091 4.5628 3.90581C4.46852 3.82605 4.41378 3.77762 4.38033 3.74629C4.3408 3.70641 4.28606 3.68362 4.22827 3.67792C4.12183 3.66938 3.90896 3.66368 3.48624 3.67223C2.46138 3.69217 2.61952 3.67507 2.61952 3.67507C2.61952 3.67507 2.47658 3.7235 2.19376 3.43009C1.91093 3.14238 1.95655 3.03698 2.20896 3.02559C2.4036 3.01704 2.52524 3.01989 2.56478 3.02274Z" fill="#F68F64"/>
<path d="M3.14123 7.0007H3.39018H5.05084C5.05084 7.0007 5.17815 6.9873 5.22624 7.07774C5.27433 7.17152 6.37484 8.6352 6.37484 8.6352L7.90819 10.6616C7.90819 10.6616 8.01286 10.7889 7.99872 10.8558C7.98457 10.9228 7.98174 10.9831 7.68469 10.9865C7.38764 10.9898 5.94765 10.9999 5.94765 10.9999C5.94765 10.9999 5.80903 11.0099 5.70718 10.8659C5.61382 10.7319 3.45808 7.90838 3.09879 7.44282C3.0507 7.37918 3.01675 7.30215 3.00543 7.21171C2.98846 7.11123 3.00543 7.0007 3.14123 7.0007Z" fill="#F68F64"/>
<defs>
<clipPath id="clip0_105_288">
<rect width="7.04" height="7.04" fill="white" transform="translate(8.14014 8.32001)"/>
</clipPath>
</defs>
</svg>
