<svg width="48" height="35" viewBox="0 0 48 35" fill="none" xmlns="http://www.w3.org/2000/svg">
<g clip-path="url(#clip0_18_152)">
<path d="M12.6007 13.644H23.2634L25.5082 4.4194H22.2463V1.96418H26.2448C26.2448 1.96418 27.3321 1.08731 26.2448 0H16.7045L12.6007 4.31417C12.6007 4.31417 5.86641 4.06865 3.90223 5.57686C1.93805 7.08507 -0.727627 10.1015 1.37685 12.697" fill="#F68F64"/>
<path d="M20.4925 4.24404V1.71866H17.0552L14.6351 4.17388L20.4925 4.24404Z" fill="#F68F64"/>
<path d="M7.2694 17.5724C4.84925 17.5724 2.88507 15.6082 2.88507 13.188C2.88507 10.7679 4.84925 8.80371 7.2694 8.80371C9.68955 8.80371 11.6537 10.7679 11.6537 13.188C11.6537 15.6082 9.68955 17.5724 7.2694 17.5724Z" fill="#F68F64"/>
<path d="M7.2694 9.36492C9.40895 9.36492 11.1276 11.0836 11.1276 13.2231C11.1276 15.3627 9.40895 17.0813 7.2694 17.0813C5.12984 17.0813 3.41119 15.3627 3.41119 13.2231C3.41119 11.0836 5.16492 9.36492 7.2694 9.36492ZM7.2694 8.31268C4.56865 8.31268 2.35895 10.5224 2.35895 13.2231C2.35895 15.9239 4.56865 18.1336 7.2694 18.1336C9.97014 18.1336 12.1798 15.9239 12.1798 13.2231C12.1798 10.5224 9.97014 8.31268 7.2694 8.31268Z" fill="#F68F64"/>
<path d="M25.7888 14.556V15.8888L28.9104 18.0284C28.9104 18.0284 29.9978 18.9052 28.9104 18.9052C27.8231 18.9052 24.5261 18.8 24.6313 18.9052C24.7366 19.0104 22.562 28.0948 22.562 28.0948H34.7328H44.3433C44.3433 28.0948 46.6231 28.3052 46.6231 27.2179C46.6231 26.1306 46.6231 25.0082 46.6231 25.0082H47.2896V22.9037H46.6231C46.6231 22.9037 46.3776 20.3784 41.2918 19.5015C36.206 18.6246 32.8037 18.5194 32.8037 18.5194L25.7888 14.556Z" fill="#F68F64"/>
<path d="M39.3978 33.8821C36.9776 33.8821 35.0134 31.9179 35.0134 29.4978C35.0134 27.0776 36.9776 25.1134 39.3978 25.1134C41.8179 25.1134 43.7821 27.0776 43.7821 29.4978C43.7821 31.9179 41.8179 33.8821 39.3978 33.8821Z" fill="#F68F64"/>
<path d="M39.3978 25.6746C41.5373 25.6746 43.256 27.3933 43.256 29.5329C43.256 31.6724 41.5373 33.3911 39.3978 33.3911C37.2582 33.3911 35.5395 31.6724 35.5395 29.5329C35.5395 27.3933 37.2582 25.6746 39.3978 25.6746ZM39.3978 24.6224C36.697 24.6224 34.4873 26.8321 34.4873 29.5329C34.4873 32.2336 36.697 34.4433 39.3978 34.4433C42.0985 34.4433 44.3082 32.2336 44.3082 29.5329C44.3082 26.797 42.0985 24.6224 39.3978 24.6224Z" fill="#F68F64"/>
<path d="M41.7828 17.3269L40.4851 17.2918V17.0463C40.7306 12.0657 37.9597 9.39998 35.2239 7.997L34.3821 10.9783L29.4716 5.99775L36.241 4.24402L35.4694 6.97984C38.6261 8.24252 42.0634 11.0836 41.7828 17.3269Z" fill="#F68F64"/>
<path d="M5.20001 18.4493L6.49776 18.2739L6.53284 18.5194C7.19926 23.4649 10.391 25.5694 13.3373 26.4814L13.6179 23.3948L19.3351 27.4284L12.9866 30.3746L13.2321 27.5336C9.9 26.8321 6.0418 24.6575 5.20001 18.4493Z" fill="#F68F64"/>
</g>
<defs>
<clipPath id="clip0_18_152">
<rect width="47" height="34.7239" fill="white" transform="translate(0.5)"/>
</clipPath>
</defs>
</svg>
