<svg width="328" height="125" viewBox="0 0 328 125" fill="none" xmlns="http://www.w3.org/2000/svg">
<rect x="1" y="1" width="326" height="122.724" rx="7" stroke="#6C6C6C" stroke-width="2"/>
<path d="M21.2105 32.221C20.5702 32.221 19.9525 32.1218 19.3575 31.9235C18.7625 31.7195 18.2412 31.4305 17.7935 31.0565C17.3515 30.6825 17.037 30.2377 16.85 29.722L18.1845 29.2205C18.2978 29.5378 18.5075 29.8155 18.8135 30.0535C19.1252 30.2858 19.4907 30.4672 19.91 30.5975C20.3293 30.7278 20.7628 30.793 21.2105 30.793C21.7205 30.793 22.1937 30.7108 22.63 30.5465C23.072 30.3765 23.429 30.1413 23.701 29.841C23.973 29.5407 24.109 29.1893 24.109 28.787C24.109 28.3733 23.9673 28.0362 23.684 27.7755C23.4007 27.5092 23.038 27.2995 22.596 27.1465C22.154 26.9878 21.6922 26.866 21.2105 26.781C20.3888 26.645 19.6522 26.4523 19.0005 26.203C18.3545 25.948 17.8417 25.5938 17.462 25.1405C17.088 24.6872 16.901 24.0893 16.901 23.347C16.901 22.6557 17.0993 22.0522 17.496 21.5365C17.8983 21.0208 18.4282 20.6213 19.0855 20.338C19.7428 20.0547 20.4512 19.913 21.2105 19.913C21.8395 19.913 22.4487 20.0122 23.038 20.2105C23.633 20.4032 24.1572 20.6865 24.6105 21.0605C25.0638 21.4345 25.3897 21.8907 25.588 22.429L24.2365 22.922C24.1232 22.599 23.9107 22.3213 23.599 22.089C23.293 21.851 22.9303 21.6697 22.511 21.545C22.0973 21.4147 21.6638 21.3495 21.2105 21.3495C20.7062 21.3438 20.2358 21.426 19.7995 21.596C19.3632 21.766 19.009 22.0012 18.737 22.3015C18.465 22.6018 18.329 22.9503 18.329 23.347C18.329 23.823 18.4537 24.1885 18.703 24.4435C18.958 24.6928 19.3037 24.8798 19.74 25.0045C20.1763 25.1292 20.6665 25.2397 21.2105 25.336C21.9812 25.4663 22.6952 25.6732 23.3525 25.9565C24.0098 26.2342 24.5368 26.6053 24.9335 27.07C25.3358 27.5347 25.537 28.107 25.537 28.787C25.537 29.4783 25.3358 30.0818 24.9335 30.5975C24.5368 31.1132 24.0098 31.5127 23.3525 31.796C22.6952 32.0793 21.9812 32.221 21.2105 32.221ZM31.0457 32H29.6007L26.7532 23.5H28.1472L30.3402 29.9855L32.5077 23.5H33.9782L36.1542 29.9855L38.3217 23.5H39.7327L36.8852 32H35.4317L33.2302 25.455L31.0457 32ZM47.6108 23.5H49.0388V32H47.6108L47.5513 30.5635C47.285 31.0565 46.9167 31.456 46.4463 31.762C45.9817 32.068 45.4263 32.221 44.7803 32.221C44.157 32.221 43.5733 32.1048 43.0293 31.8725C42.4853 31.6345 42.0037 31.3087 41.5843 30.895C41.1707 30.4757 40.8477 29.994 40.6153 29.45C40.383 28.906 40.2668 28.3195 40.2668 27.6905C40.2668 27.0842 40.3802 26.5118 40.6068 25.9735C40.8335 25.4352 41.148 24.9648 41.5503 24.5625C41.9583 24.1545 42.4287 23.8372 42.9613 23.6105C43.494 23.3782 44.0663 23.262 44.6783 23.262C45.347 23.262 45.9335 23.4207 46.4378 23.738C46.9422 24.0497 47.3502 24.4548 47.6618 24.9535L47.6108 23.5ZM44.7548 30.8355C45.3158 30.8355 45.8003 30.6995 46.2083 30.4275C46.622 30.1498 46.9393 29.7758 47.1603 29.3055C47.387 28.8352 47.5003 28.3167 47.5003 27.75C47.5003 27.172 47.387 26.6507 47.1603 26.186C46.9337 25.7157 46.6135 25.3445 46.1998 25.0725C45.7918 24.7948 45.3102 24.656 44.7548 24.656C44.1938 24.656 43.6838 24.7948 43.2248 25.0725C42.7658 25.3502 42.4003 25.7242 42.1283 26.1945C41.862 26.6592 41.7288 27.1777 41.7288 27.75C41.7288 28.3223 41.8677 28.8437 42.1453 29.314C42.423 29.7787 42.7913 30.1498 43.2503 30.4275C43.7093 30.6995 44.2108 30.8355 44.7548 30.8355ZM52.1658 36.25H50.7378V23.5H52.1658V24.9535C52.4548 24.4548 52.8401 24.0525 53.3218 23.7465C53.8034 23.4348 54.3758 23.279 55.0388 23.279C55.6564 23.279 56.2344 23.3952 56.7728 23.6275C57.3168 23.8598 57.7928 24.1828 58.2008 24.5965C58.6088 25.0045 58.9289 25.4777 59.1613 26.016C59.3936 26.5543 59.5098 27.1323 59.5098 27.75C59.5098 28.3677 59.3936 28.9485 59.1613 29.4925C58.9289 30.0365 58.6088 30.5153 58.2008 30.929C57.7928 31.337 57.3168 31.6572 56.7728 31.8895C56.2344 32.1218 55.6564 32.238 55.0388 32.238C54.3758 32.238 53.8034 32.085 53.3218 31.779C52.8401 31.4673 52.4548 31.0622 52.1658 30.5635V36.25ZM55.0218 24.6645C54.4721 24.6645 53.9904 24.8033 53.5768 25.081C53.1631 25.3587 52.8429 25.7298 52.6163 26.1945C52.3953 26.6592 52.2848 27.1777 52.2848 27.75C52.2848 28.3167 52.3953 28.8352 52.6163 29.3055C52.8429 29.7758 53.1603 30.1498 53.5683 30.4275C53.9819 30.7052 54.4664 30.844 55.0218 30.844C55.5714 30.844 56.0758 30.708 56.5348 30.436C56.9938 30.1583 57.3621 29.7872 57.6398 29.3225C57.9174 28.8522 58.0563 28.328 58.0563 27.75C58.0563 27.1833 57.9203 26.6677 57.6483 26.203C57.3763 25.7327 57.0108 25.3587 56.5518 25.081C56.0928 24.8033 55.5828 24.6645 55.0218 24.6645ZM70.9538 23.5H72.4668L67.8173 36.25H66.3043L67.8428 32L64.7913 23.5H66.3553L68.5568 30.0365L70.9538 23.5ZM77.3049 32.221C76.5229 32.221 75.8089 32.0198 75.1629 31.6175C74.5226 31.2152 74.0098 30.6768 73.6244 30.0025C73.2448 29.3225 73.0549 28.5717 73.0549 27.75C73.0549 27.1267 73.1654 26.5458 73.3864 26.0075C73.6074 25.4635 73.9106 24.9875 74.2959 24.5795C74.6869 24.1658 75.1403 23.8428 75.6559 23.6105C76.1716 23.3782 76.7213 23.262 77.3049 23.262C78.0869 23.262 78.7981 23.4632 79.4384 23.8655C80.0844 24.2678 80.5973 24.809 80.9769 25.489C81.3623 26.169 81.5549 26.9227 81.5549 27.75C81.5549 28.3677 81.4444 28.9457 81.2234 29.484C81.0024 30.0223 80.6964 30.4983 80.3054 30.912C79.9201 31.32 79.4696 31.6402 78.9539 31.8725C78.4439 32.1048 77.8943 32.221 77.3049 32.221ZM77.3049 30.793C77.8376 30.793 78.3164 30.6542 78.7414 30.3765C79.1721 30.0932 79.5093 29.722 79.7529 29.263C80.0023 28.7983 80.1269 28.294 80.1269 27.75C80.1269 27.1947 79.9994 26.6847 79.7444 26.22C79.4951 25.7553 79.1579 25.3842 78.7329 25.1065C78.3079 24.8288 77.8319 24.69 77.3049 24.69C76.7723 24.69 76.2934 24.8317 75.8684 25.115C75.4434 25.3927 75.1063 25.7638 74.8569 26.2285C74.6076 26.6932 74.4829 27.2003 74.4829 27.75C74.4829 28.3167 74.6104 28.8323 74.8654 29.297C75.1204 29.756 75.4633 30.1215 75.8939 30.3935C76.3246 30.6598 76.7949 30.793 77.3049 30.793ZM82.5052 28.77V23.5H83.9332V28.4555C83.9332 28.8862 84.038 29.2772 84.2477 29.6285C84.4574 29.9798 84.7379 30.2603 85.0892 30.47C85.4462 30.674 85.8372 30.776 86.2622 30.776C86.6929 30.776 87.081 30.674 87.4267 30.47C87.778 30.2603 88.0585 29.9798 88.2682 29.6285C88.4779 29.2772 88.5827 28.8862 88.5827 28.4555V23.5H90.0107L90.0192 32H88.5912L88.5827 30.9205C88.2824 31.3172 87.9027 31.6345 87.4437 31.8725C86.9847 32.1048 86.4889 32.221 85.9562 32.221C85.3215 32.221 84.7407 32.068 84.2137 31.762C83.6924 31.4503 83.2759 31.0338 82.9642 30.5125C82.6582 29.9912 82.5052 29.4103 82.5052 28.77ZM91.727 32V23.5H93.155V24.5625C93.4554 24.1658 93.835 23.8513 94.294 23.619C94.753 23.381 95.2517 23.262 95.79 23.262C96.1187 23.262 96.436 23.3045 96.742 23.3895L96.164 24.8175C95.9317 24.7438 95.705 24.707 95.484 24.707C95.059 24.707 94.668 24.8118 94.311 25.0215C93.9597 25.2255 93.6792 25.5032 93.4695 25.8545C93.2599 26.2058 93.155 26.5968 93.155 27.0275V32H91.727ZM108.863 19.25H110.291V32H108.863V30.555C108.574 31.0537 108.185 31.456 107.698 31.762C107.211 32.068 106.638 32.221 105.981 32.221C105.363 32.221 104.785 32.1048 104.247 31.8725C103.709 31.6402 103.233 31.32 102.819 30.912C102.411 30.4983 102.091 30.0223 101.859 29.484C101.626 28.9457 101.51 28.3677 101.51 27.75C101.51 27.1323 101.626 26.5543 101.859 26.016C102.091 25.472 102.411 24.996 102.819 24.588C103.233 24.1743 103.709 23.8513 104.247 23.619C104.785 23.3867 105.363 23.2705 105.981 23.2705C106.638 23.2705 107.211 23.4235 107.698 23.7295C108.185 24.0355 108.574 24.4378 108.863 24.9365V19.25ZM105.998 30.8355C106.559 30.8355 107.044 30.6995 107.452 30.4275C107.865 30.1498 108.183 29.7758 108.404 29.3055C108.63 28.8352 108.744 28.3167 108.744 27.75C108.744 27.172 108.63 26.6507 108.404 26.186C108.177 25.7157 107.857 25.3445 107.443 25.0725C107.035 24.7948 106.553 24.656 105.998 24.656C105.437 24.656 104.927 24.7948 104.468 25.0725C104.015 25.3502 103.652 25.7242 103.38 26.1945C103.108 26.6592 102.972 27.1777 102.972 27.75C102.972 28.3223 103.111 28.8437 103.389 29.314C103.666 29.7787 104.035 30.1498 104.494 30.4275C104.953 30.6995 105.454 30.8355 105.998 30.8355ZM119.081 23.5H120.509V32H119.081L119.021 30.5635C118.755 31.0565 118.386 31.456 117.916 31.762C117.451 32.068 116.896 32.221 116.25 32.221C115.627 32.221 115.043 32.1048 114.499 31.8725C113.955 31.6345 113.473 31.3087 113.054 30.895C112.64 30.4757 112.317 29.994 112.085 29.45C111.853 28.906 111.737 28.3195 111.737 27.6905C111.737 27.0842 111.85 26.5118 112.077 25.9735C112.303 25.4352 112.618 24.9648 113.02 24.5625C113.428 24.1545 113.898 23.8372 114.431 23.6105C114.964 23.3782 115.536 23.262 116.148 23.262C116.817 23.262 117.403 23.4207 117.908 23.738C118.412 24.0497 118.82 24.4548 119.132 24.9535L119.081 23.5ZM116.225 30.8355C116.786 30.8355 117.27 30.6995 117.678 30.4275C118.092 30.1498 118.409 29.7758 118.63 29.3055C118.857 28.8352 118.97 28.3167 118.97 27.75C118.97 27.172 118.857 26.6507 118.63 26.186C118.403 25.7157 118.083 25.3445 117.67 25.0725C117.262 24.7948 116.78 24.656 116.225 24.656C115.664 24.656 115.154 24.7948 114.695 25.0725C114.236 25.3502 113.87 25.7242 113.598 26.1945C113.332 26.6592 113.199 27.1777 113.199 27.75C113.199 28.3223 113.337 28.8437 113.615 29.314C113.893 29.7787 114.261 30.1498 114.72 30.4275C115.179 30.6995 115.681 30.8355 116.225 30.8355ZM122.208 23.5H123.636V32H122.208V23.5ZM122.939 22.1145C122.712 22.1145 122.522 22.0408 122.369 21.8935C122.216 21.7462 122.14 21.562 122.14 21.341C122.14 21.12 122.216 20.9358 122.369 20.7885C122.522 20.6412 122.709 20.5675 122.93 20.5675C123.151 20.5675 123.338 20.6412 123.491 20.7885C123.644 20.9358 123.721 21.12 123.721 21.341C123.721 21.562 123.644 21.7462 123.491 21.8935C123.344 22.0408 123.16 22.1145 122.939 22.1145ZM125.727 32V19.25H127.155V32H125.727ZM134.687 23.5H136.2L131.551 36.25H130.038L131.576 32L128.525 23.5H130.089L132.29 30.0365L134.687 23.5ZM148.822 19.25H150.25V32H148.822V30.555C148.533 31.0537 148.145 31.456 147.658 31.762C147.171 32.068 146.598 32.221 145.941 32.221C145.323 32.221 144.745 32.1048 144.207 31.8725C143.669 31.6402 143.193 31.32 142.779 30.912C142.371 30.4983 142.051 30.0223 141.818 29.484C141.586 28.9457 141.47 28.3677 141.47 27.75C141.47 27.1323 141.586 26.5543 141.818 26.016C142.051 25.472 142.371 24.996 142.779 24.588C143.193 24.1743 143.669 23.8513 144.207 23.619C144.745 23.3867 145.323 23.2705 145.941 23.2705C146.598 23.2705 147.171 23.4235 147.658 23.7295C148.145 24.0355 148.533 24.4378 148.822 24.9365V19.25ZM145.958 30.8355C146.519 30.8355 147.003 30.6995 147.411 30.4275C147.825 30.1498 148.142 29.7758 148.363 29.3055C148.59 28.8352 148.703 28.3167 148.703 27.75C148.703 27.172 148.59 26.6507 148.363 26.186C148.137 25.7157 147.817 25.3445 147.403 25.0725C146.995 24.7948 146.513 24.656 145.958 24.656C145.397 24.656 144.887 24.7948 144.428 25.0725C143.975 25.3502 143.612 25.7242 143.34 26.1945C143.068 26.6592 142.932 27.1777 142.932 27.75C142.932 28.3223 143.071 28.8437 143.348 29.314C143.626 29.7787 143.994 30.1498 144.453 30.4275C144.912 30.6995 145.414 30.8355 145.958 30.8355ZM152.29 32V23.5H153.718V24.5625C154.018 24.1658 154.398 23.8513 154.857 23.619C155.316 23.381 155.814 23.262 156.353 23.262C156.681 23.262 156.999 23.3045 157.305 23.3895L156.727 24.8175C156.494 24.7438 156.268 24.707 156.047 24.707C155.622 24.707 155.231 24.8118 154.874 25.0215C154.522 25.2255 154.242 25.5032 154.032 25.8545C153.822 26.2058 153.718 26.5968 153.718 27.0275V32H152.29ZM158.349 23.5H159.777V32H158.349V23.5ZM159.08 22.1145C158.853 22.1145 158.664 22.0408 158.511 21.8935C158.358 21.7462 158.281 21.562 158.281 21.341C158.281 21.12 158.358 20.9358 158.511 20.7885C158.664 20.6412 158.851 20.5675 159.072 20.5675C159.293 20.5675 159.48 20.6412 159.633 20.7885C159.786 20.9358 159.862 21.12 159.862 21.341C159.862 21.562 159.786 21.7462 159.633 21.8935C159.485 22.0408 159.301 22.1145 159.08 22.1145ZM166.089 32H164.262L161.159 23.483H162.681L165.171 30.3425L167.662 23.483H169.183L166.089 32ZM173.976 32.221C173.194 32.221 172.48 32.0198 171.834 31.6175C171.193 31.2152 170.681 30.6768 170.295 30.0025C169.916 29.3225 169.726 28.5717 169.726 27.75C169.726 27.1267 169.836 26.5458 170.057 26.0075C170.278 25.4635 170.581 24.9875 170.967 24.5795C171.358 24.1658 171.811 23.8428 172.327 23.6105C172.842 23.3782 173.392 23.262 173.976 23.262C174.616 23.262 175.203 23.3923 175.735 23.653C176.274 23.908 176.733 24.265 177.112 24.724C177.498 25.183 177.784 25.7157 177.971 26.322C178.163 26.9283 178.234 27.5772 178.183 28.2685H171.247C171.315 28.7502 171.474 29.1808 171.723 29.5605C171.973 29.9345 172.29 30.232 172.675 30.453C173.066 30.674 173.5 30.7873 173.976 30.793C174.486 30.793 174.948 30.6627 175.361 30.402C175.775 30.1357 176.109 29.773 176.364 29.314L177.818 29.654C177.478 30.4077 176.965 31.0253 176.279 31.507C175.594 31.983 174.826 32.221 173.976 32.221ZM171.205 27.1465H176.747C176.701 26.6705 176.548 26.237 176.288 25.846C176.027 25.4493 175.696 25.132 175.293 24.894C174.891 24.656 174.452 24.537 173.976 24.537C173.5 24.537 173.063 24.6532 172.667 24.8855C172.27 25.1178 171.941 25.4323 171.681 25.829C171.426 26.22 171.267 26.6592 171.205 27.1465ZM179.616 32V23.5H181.044V24.5625C181.344 24.1658 181.724 23.8513 182.183 23.619C182.642 23.381 183.14 23.262 183.679 23.262C184.007 23.262 184.325 23.3045 184.631 23.3895L184.053 24.8175C183.82 24.7438 183.594 24.707 183.373 24.707C182.948 24.707 182.557 24.8118 182.2 25.0215C181.848 25.2255 181.568 25.5032 181.358 25.8545C181.149 26.2058 181.044 26.5968 181.044 27.0275V32H179.616ZM191.838 21.4005V23.5H194.329V24.928H191.838V32H190.41V24.928H189.314V23.5H190.41V21.4005C190.41 20.9642 190.515 20.5703 190.725 20.219C190.94 19.862 191.226 19.5787 191.583 19.369C191.946 19.1537 192.343 19.046 192.773 19.046C193.091 19.046 193.399 19.1112 193.7 19.2415C194 19.3662 194.266 19.5532 194.499 19.8025L193.479 20.814C193.399 20.7063 193.295 20.6242 193.164 20.5675C193.04 20.5052 192.909 20.474 192.773 20.474C192.518 20.474 192.297 20.5647 192.11 20.746C191.929 20.9273 191.838 21.1455 191.838 21.4005ZM199.243 32.221C198.461 32.221 197.747 32.0198 197.101 31.6175C196.461 31.2152 195.948 30.6768 195.563 30.0025C195.183 29.3225 194.993 28.5717 194.993 27.75C194.993 27.1267 195.104 26.5458 195.325 26.0075C195.546 25.4635 195.849 24.9875 196.234 24.5795C196.625 24.1658 197.079 23.8428 197.594 23.6105C198.11 23.3782 198.66 23.262 199.243 23.262C200.025 23.262 200.737 23.4632 201.377 23.8655C202.023 24.2678 202.536 24.809 202.915 25.489C203.301 26.169 203.493 26.9227 203.493 27.75C203.493 28.3677 203.383 28.9457 203.162 29.484C202.941 30.0223 202.635 30.4983 202.244 30.912C201.859 31.32 201.408 31.6402 200.892 31.8725C200.382 32.1048 199.833 32.221 199.243 32.221ZM199.243 30.793C199.776 30.793 200.255 30.6542 200.68 30.3765C201.111 30.0932 201.448 29.722 201.691 29.263C201.941 28.7983 202.065 28.294 202.065 27.75C202.065 27.1947 201.938 26.6847 201.683 26.22C201.434 25.7553 201.096 25.3842 200.671 25.1065C200.246 24.8288 199.77 24.69 199.243 24.69C198.711 24.69 198.232 24.8317 197.807 25.115C197.382 25.3927 197.045 25.7638 196.795 26.2285C196.546 26.6932 196.421 27.2003 196.421 27.75C196.421 28.3167 196.549 28.8323 196.804 29.297C197.059 29.756 197.402 30.1215 197.832 30.3935C198.263 30.6598 198.733 30.793 199.243 30.793ZM204.9 32V23.5H206.328V24.5625C206.628 24.1658 207.008 23.8513 207.467 23.619C207.926 23.381 208.425 23.262 208.963 23.262C209.292 23.262 209.609 23.3045 209.915 23.3895L209.337 24.8175C209.105 24.7438 208.878 24.707 208.657 24.707C208.232 24.707 207.841 24.8118 207.484 25.0215C207.133 25.2255 206.852 25.5032 206.642 25.8545C206.433 26.2058 206.328 26.5968 206.328 27.0275V32H204.9ZM222.027 23.5H223.455V32H222.027L221.967 30.5635C221.701 31.0565 221.333 31.456 220.862 31.762C220.398 32.068 219.842 32.221 219.196 32.221C218.573 32.221 217.989 32.1048 217.445 31.8725C216.901 31.6345 216.42 31.3087 216 30.895C215.587 30.4757 215.264 29.994 215.031 29.45C214.799 28.906 214.683 28.3195 214.683 27.6905C214.683 27.0842 214.796 26.5118 215.023 25.9735C215.25 25.4352 215.564 24.9648 215.966 24.5625C216.374 24.1545 216.845 23.8372 217.377 23.6105C217.91 23.3782 218.482 23.262 219.094 23.262C219.763 23.262 220.35 23.4207 220.854 23.738C221.358 24.0497 221.766 24.4548 222.078 24.9535L222.027 23.5ZM219.171 30.8355C219.732 30.8355 220.216 30.6995 220.624 30.4275C221.038 30.1498 221.355 29.7758 221.576 29.3055C221.803 28.8352 221.916 28.3167 221.916 27.75C221.916 27.172 221.803 26.6507 221.576 26.186C221.35 25.7157 221.03 25.3445 220.616 25.0725C220.208 24.7948 219.726 24.656 219.171 24.656C218.61 24.656 218.1 24.7948 217.641 25.0725C217.182 25.3502 216.816 25.7242 216.544 26.1945C216.278 26.6592 216.145 27.1777 216.145 27.75C216.145 28.3223 216.284 28.8437 216.561 29.314C216.839 29.7787 217.207 30.1498 217.666 30.4275C218.125 30.6995 218.627 30.8355 219.171 30.8355ZM233.539 23.262C234.366 23.262 235.117 23.4632 235.791 23.8655C236.471 24.2678 237.012 24.809 237.415 25.489C237.817 26.1633 238.018 26.9142 238.018 27.7415C238.018 28.3592 237.902 28.94 237.67 29.484C237.437 30.0223 237.114 30.4983 236.701 30.912C236.293 31.32 235.817 31.6402 235.273 31.8725C234.734 32.1048 234.156 32.221 233.539 32.221C232.881 32.221 232.309 32.068 231.822 31.762C231.34 31.4503 230.955 31.0452 230.666 30.5465V32H229.238V19.25H230.666V24.9365C230.955 24.4378 231.34 24.0355 231.822 23.7295C232.309 23.4178 232.881 23.262 233.539 23.262ZM233.522 30.827C234.083 30.827 234.593 30.6882 235.052 30.4105C235.511 30.1328 235.876 29.7617 236.148 29.297C236.42 28.8267 236.556 28.3082 236.556 27.7415C236.556 27.1635 236.417 26.6422 236.14 26.1775C235.862 25.7072 235.494 25.336 235.035 25.064C234.576 24.7863 234.071 24.6475 233.522 24.6475C232.966 24.6475 232.482 24.7863 232.068 25.064C231.66 25.3417 231.343 25.7157 231.116 26.186C230.895 26.6563 230.785 27.1748 230.785 27.7415C230.785 28.3138 230.895 28.8352 231.116 29.3055C231.343 29.7702 231.663 30.1413 232.077 30.419C232.49 30.691 232.972 30.827 233.522 30.827ZM239.315 23.5H240.743V32H239.315V23.5ZM240.046 22.1145C239.819 22.1145 239.629 22.0408 239.476 21.8935C239.323 21.7462 239.247 21.562 239.247 21.341C239.247 21.12 239.323 20.9358 239.476 20.7885C239.629 20.6412 239.816 20.5675 240.037 20.5675C240.258 20.5675 240.445 20.6412 240.598 20.7885C240.751 20.9358 240.828 21.12 240.828 21.341C240.828 21.562 240.751 21.7462 240.598 21.8935C240.451 22.0408 240.267 22.1145 240.046 22.1145ZM249.307 23.5H250.735V32.272C250.735 32.833 250.613 33.3543 250.369 33.836C250.131 34.3233 249.808 34.7455 249.4 35.1025C248.992 35.4652 248.528 35.7457 248.006 35.944C247.485 36.148 246.941 36.25 246.374 36.25C245.785 36.25 245.216 36.1168 244.666 35.8505C244.116 35.5898 243.635 35.2385 243.221 34.7965C242.813 34.3602 242.518 33.87 242.337 33.326L243.646 32.731C243.754 33.122 243.946 33.4733 244.224 33.785C244.507 34.1023 244.836 34.3517 245.21 34.533C245.59 34.72 245.978 34.8135 246.374 34.8135C246.748 34.8135 247.108 34.7483 247.454 34.618C247.805 34.4877 248.12 34.3063 248.397 34.074C248.681 33.8473 248.902 33.5782 249.06 33.2665C249.225 32.9605 249.307 32.629 249.307 32.272V30.5805C249.018 31.0678 248.635 31.4645 248.159 31.7705C247.689 32.0708 247.139 32.221 246.51 32.221C245.91 32.221 245.346 32.1048 244.819 31.8725C244.292 31.6402 243.83 31.32 243.433 30.912C243.037 30.4983 242.725 30.0223 242.498 29.484C242.272 28.9457 242.158 28.3677 242.158 27.75C242.158 27.1323 242.272 26.5543 242.498 26.016C242.725 25.472 243.037 24.996 243.433 24.588C243.83 24.1743 244.292 23.8513 244.819 23.619C245.346 23.3867 245.91 23.2705 246.51 23.2705C247.139 23.2705 247.689 23.4207 248.159 23.721C248.635 24.0213 249.018 24.418 249.307 24.911V23.5ZM246.519 30.8355C247.069 30.8355 247.545 30.6938 247.947 30.4105C248.355 30.1272 248.669 29.7503 248.89 29.28C249.111 28.8097 249.222 28.2997 249.222 27.75C249.222 27.1833 249.109 26.6677 248.882 26.203C248.661 25.7327 248.346 25.3587 247.938 25.081C247.536 24.7977 247.063 24.656 246.519 24.656C245.986 24.656 245.499 24.7948 245.057 25.0725C244.615 25.3502 244.264 25.7242 244.003 26.1945C243.748 26.6592 243.62 27.1777 243.62 27.75C243.62 28.3223 243.751 28.8437 244.011 29.314C244.278 29.7787 244.629 30.1498 245.065 30.4275C245.507 30.6995 245.992 30.8355 246.519 30.8355ZM259.301 23.5H260.729V32.272C260.729 32.833 260.607 33.3543 260.364 33.836C260.126 34.3233 259.803 34.7455 259.395 35.1025C258.987 35.4652 258.522 35.7457 258.001 35.944C257.479 36.148 256.935 36.25 256.369 36.25C255.779 36.25 255.21 36.1168 254.66 35.8505C254.11 35.5898 253.629 35.2385 253.215 34.7965C252.807 34.3602 252.512 33.87 252.331 33.326L253.64 32.731C253.748 33.122 253.94 33.4733 254.218 33.785C254.501 34.1023 254.83 34.3517 255.204 34.533C255.584 34.72 255.972 34.8135 256.369 34.8135C256.743 34.8135 257.102 34.7483 257.448 34.618C257.799 34.4877 258.114 34.3063 258.392 34.074C258.675 33.8473 258.896 33.5782 259.055 33.2665C259.219 32.9605 259.301 32.629 259.301 32.272V30.5805C259.012 31.0678 258.63 31.4645 258.154 31.7705C257.683 32.0708 257.134 32.221 256.505 32.221C255.904 32.221 255.34 32.1048 254.813 31.8725C254.286 31.6402 253.824 31.32 253.428 30.912C253.031 30.4983 252.719 30.0223 252.493 29.484C252.266 28.9457 252.153 28.3677 252.153 27.75C252.153 27.1323 252.266 26.5543 252.493 26.016C252.719 25.472 253.031 24.996 253.428 24.588C253.824 24.1743 254.286 23.8513 254.813 23.619C255.34 23.3867 255.904 23.2705 256.505 23.2705C257.134 23.2705 257.683 23.4207 258.154 23.721C258.63 24.0213 259.012 24.418 259.301 24.911V23.5ZM256.513 30.8355C257.063 30.8355 257.539 30.6938 257.941 30.4105C258.349 30.1272 258.664 29.7503 258.885 29.28C259.106 28.8097 259.216 28.2997 259.216 27.75C259.216 27.1833 259.103 26.6677 258.876 26.203C258.655 25.7327 258.341 25.3587 257.933 25.081C257.53 24.7977 257.057 24.656 256.513 24.656C255.98 24.656 255.493 24.7948 255.051 25.0725C254.609 25.3502 254.258 25.7242 253.997 26.1945C253.742 26.6592 253.615 27.1777 253.615 27.75C253.615 28.3223 253.745 28.8437 254.006 29.314C254.272 29.7787 254.623 30.1498 255.06 30.4275C255.502 30.6995 255.986 30.8355 256.513 30.8355ZM266.397 32.221C265.615 32.221 264.901 32.0198 264.255 31.6175C263.614 31.2152 263.102 30.6768 262.716 30.0025C262.337 29.3225 262.147 28.5717 262.147 27.75C262.147 27.1267 262.257 26.5458 262.478 26.0075C262.699 25.4635 263.002 24.9875 263.388 24.5795C263.779 24.1658 264.232 23.8428 264.748 23.6105C265.263 23.3782 265.813 23.262 266.397 23.262C267.037 23.262 267.624 23.3923 268.156 23.653C268.695 23.908 269.154 24.265 269.533 24.724C269.919 25.183 270.205 25.7157 270.392 26.322C270.584 26.9283 270.655 27.5772 270.604 28.2685H263.668C263.736 28.7502 263.895 29.1808 264.144 29.5605C264.394 29.9345 264.711 30.232 265.096 30.453C265.487 30.674 265.921 30.7873 266.397 30.793C266.907 30.793 267.369 30.6627 267.782 30.402C268.196 30.1357 268.53 29.773 268.785 29.314L270.239 29.654C269.899 30.4077 269.386 31.0253 268.7 31.507C268.015 31.983 267.247 32.221 266.397 32.221ZM263.626 27.1465H269.168C269.122 26.6705 268.969 26.237 268.709 25.846C268.448 25.4493 268.117 25.132 267.714 24.894C267.312 24.656 266.873 24.537 266.397 24.537C265.921 24.537 265.484 24.6532 265.088 24.8855C264.691 25.1178 264.362 25.4323 264.102 25.829C263.847 26.22 263.688 26.6592 263.626 27.1465ZM272.037 32V23.5H273.465V24.5625C273.765 24.1658 274.145 23.8513 274.604 23.619C275.063 23.381 275.561 23.262 276.1 23.262C276.428 23.262 276.746 23.3045 277.052 23.3895L276.474 24.8175C276.241 24.7438 276.015 24.707 275.794 24.707C275.369 24.707 274.978 24.8118 274.621 25.0215C274.269 25.2255 273.989 25.5032 273.779 25.8545C273.569 26.2058 273.465 26.5968 273.465 27.0275V32H272.037ZM288.186 29.756L289.461 30.4445C289.076 30.9828 288.586 31.4135 287.991 31.7365C287.401 32.0595 286.761 32.221 286.07 32.221C285.288 32.221 284.574 32.0198 283.928 31.6175C283.287 31.2152 282.774 30.6768 282.389 30.0025C282.009 29.3225 281.82 28.5717 281.82 27.75C281.82 27.1267 281.93 26.5458 282.151 26.0075C282.372 25.4635 282.675 24.9875 283.061 24.5795C283.452 24.1658 283.905 23.8428 284.421 23.6105C284.936 23.3782 285.486 23.262 286.07 23.262C286.761 23.262 287.401 23.4235 287.991 23.7465C288.586 24.0695 289.076 24.503 289.461 25.047L288.186 25.7355C287.914 25.4012 287.591 25.1433 287.217 24.962C286.843 24.7807 286.461 24.69 286.07 24.69C285.543 24.69 285.064 24.8317 284.633 25.115C284.208 25.3927 283.871 25.7638 283.622 26.2285C283.372 26.6932 283.248 27.2003 283.248 27.75C283.248 28.2997 283.372 28.8068 283.622 29.2715C283.877 29.7305 284.217 30.0988 284.642 30.3765C285.072 30.6542 285.548 30.793 286.07 30.793C286.489 30.793 286.883 30.6967 287.251 30.504C287.619 30.3113 287.931 30.062 288.186 29.756ZM297.68 23.5H299.108V32H297.68L297.621 30.5635C297.354 31.0565 296.986 31.456 296.516 31.762C296.051 32.068 295.496 32.221 294.85 32.221C294.226 32.221 293.643 32.1048 293.099 31.8725C292.555 31.6345 292.073 31.3087 291.654 30.895C291.24 30.4757 290.917 29.994 290.685 29.45C290.452 28.906 290.336 28.3195 290.336 27.6905C290.336 27.0842 290.45 26.5118 290.676 25.9735C290.903 25.4352 291.217 24.9648 291.62 24.5625C292.028 24.1545 292.498 23.8372 293.031 23.6105C293.563 23.3782 294.136 23.262 294.748 23.262C295.416 23.262 296.003 23.4207 296.507 23.738C297.012 24.0497 297.42 24.4548 297.731 24.9535L297.68 23.5ZM294.824 30.8355C295.385 30.8355 295.87 30.6995 296.278 30.4275C296.691 30.1498 297.009 29.7758 297.23 29.3055C297.456 28.8352 297.57 28.3167 297.57 27.75C297.57 27.172 297.456 26.6507 297.23 26.186C297.003 25.7157 296.683 25.3445 296.269 25.0725C295.861 24.7948 295.38 24.656 294.824 24.656C294.263 24.656 293.753 24.7948 293.294 25.0725C292.835 25.3502 292.47 25.7242 292.198 26.1945C291.931 26.6592 291.798 27.1777 291.798 27.75C291.798 28.3223 291.937 28.8437 292.215 29.314C292.492 29.7787 292.861 30.1498 293.32 30.4275C293.779 30.6995 294.28 30.8355 294.824 30.8355ZM300.807 32V23.5H302.235V24.5625C302.535 24.1658 302.915 23.8513 303.374 23.619C303.833 23.381 304.332 23.262 304.87 23.262C305.199 23.262 305.516 23.3045 305.822 23.3895L305.244 24.8175C305.012 24.7438 304.785 24.707 304.564 24.707C304.139 24.707 303.748 24.8118 303.391 25.0215C303.04 25.2255 302.759 25.5032 302.55 25.8545C302.34 26.2058 302.235 26.5968 302.235 27.0275V32H300.807ZM306.062 32.952L306.589 30.079H308.017L307.014 32.952H306.062ZM21.423 44.928H19.4935L19.485 52H18.057L18.0655 44.928H16.6035V43.5H18.0655L18.057 40.831H19.485L19.4935 43.5H21.423V44.928ZM22.9468 52V43.5H24.3748V44.5625C24.6751 44.1658 25.0548 43.8513 25.5138 43.619C25.9728 43.381 26.4714 43.262 27.0098 43.262C27.3384 43.262 27.6558 43.3045 27.9618 43.3895L27.3838 44.8175C27.1514 44.7438 26.9248 44.707 26.7038 44.707C26.2788 44.707 25.8878 44.8118 25.5308 45.0215C25.1794 45.2255 24.8989 45.5032 24.6893 45.8545C24.4796 46.2058 24.3748 46.5968 24.3748 47.0275V52H22.9468ZM28.6497 48.77V43.5H30.0777V48.4555C30.0777 48.8862 30.1826 49.2772 30.3922 49.6285C30.6019 49.9798 30.8824 50.2603 31.2337 50.47C31.5907 50.674 31.9817 50.776 32.4067 50.776C32.8374 50.776 33.2256 50.674 33.5712 50.47C33.9226 50.2603 34.2031 49.9798 34.4127 49.6285C34.6224 49.2772 34.7272 48.8862 34.7272 48.4555V43.5H36.1552L36.1637 52H34.7357L34.7272 50.9205C34.4269 51.3172 34.0472 51.6345 33.5882 51.8725C33.1292 52.1048 32.6334 52.221 32.1007 52.221C31.4661 52.221 30.8852 52.068 30.3582 51.762C29.8369 51.4503 29.4204 51.0338 29.1087 50.5125C28.8027 49.9912 28.6497 49.4103 28.6497 48.77ZM43.6451 49.756L44.9201 50.4445C44.5347 50.9828 44.0446 51.4135 43.4496 51.7365C42.8602 52.0595 42.2199 52.221 41.5286 52.221C40.7466 52.221 40.0326 52.0198 39.3866 51.6175C38.7462 51.2152 38.2334 50.6768 37.8481 50.0025C37.4684 49.3225 37.2786 48.5717 37.2786 47.75C37.2786 47.1267 37.3891 46.5458 37.6101 46.0075C37.8311 45.4635 38.1342 44.9875 38.5196 44.5795C38.9106 44.1658 39.3639 43.8428 39.8796 43.6105C40.3952 43.3782 40.9449 43.262 41.5286 43.262C42.2199 43.262 42.8602 43.4235 43.4496 43.7465C44.0446 44.0695 44.5347 44.503 44.9201 45.047L43.6451 45.7355C43.3731 45.4012 43.0501 45.1433 42.6761 44.962C42.3021 44.7807 41.9196 44.69 41.5286 44.69C41.0016 44.69 40.5227 44.8317 40.0921 45.115C39.6671 45.3927 39.3299 45.7638 39.0806 46.2285C38.8312 46.6932 38.7066 47.2003 38.7066 47.75C38.7066 48.2997 38.8312 48.8068 39.0806 49.2715C39.3356 49.7305 39.6756 50.0988 40.1006 50.3765C40.5312 50.6542 41.0072 50.793 41.5286 50.793C41.9479 50.793 42.3417 50.6967 42.7101 50.504C43.0784 50.3113 43.3901 50.062 43.6451 49.756ZM53.1987 52H51.5582L49.2972 48.0985L47.7332 49.9685V52H46.3052V39.25H47.7332V47.75L51.2947 43.5H53.1562L50.2662 46.9425L53.1987 52ZM62.6789 52.221C61.8969 52.221 61.1829 52.0198 60.5369 51.6175C59.8966 51.2152 59.3838 50.6768 58.9984 50.0025C58.6188 49.3225 58.4289 48.5717 58.4289 47.75C58.4289 47.1267 58.5394 46.5458 58.7604 46.0075C58.9814 45.4635 59.2846 44.9875 59.6699 44.5795C60.0609 44.1658 60.5143 43.8428 61.0299 43.6105C61.5456 43.3782 62.0953 43.262 62.6789 43.262C63.4609 43.262 64.1721 43.4632 64.8124 43.8655C65.4584 44.2678 65.9713 44.809 66.3509 45.489C66.7363 46.169 66.9289 46.9227 66.9289 47.75C66.9289 48.3677 66.8184 48.9457 66.5974 49.484C66.3764 50.0223 66.0704 50.4983 65.6794 50.912C65.2941 51.32 64.8436 51.6402 64.3279 51.8725C63.8179 52.1048 63.2683 52.221 62.6789 52.221ZM62.6789 50.793C63.2116 50.793 63.6904 50.6542 64.1154 50.3765C64.5461 50.0932 64.8833 49.722 65.1269 49.263C65.3763 48.7983 65.5009 48.294 65.5009 47.75C65.5009 47.1947 65.3734 46.6847 65.1184 46.22C64.8691 45.7553 64.5319 45.3842 64.1069 45.1065C63.6819 44.8288 63.2059 44.69 62.6789 44.69C62.1463 44.69 61.6674 44.8317 61.2424 45.115C60.8174 45.3927 60.4803 45.7638 60.2309 46.2285C59.9816 46.6932 59.8569 47.2003 59.8569 47.75C59.8569 48.3167 59.9844 48.8323 60.2394 49.297C60.4944 49.756 60.8373 50.1215 61.2679 50.3935C61.6986 50.6598 62.1689 50.793 62.6789 50.793ZM68.3354 52V43.5H69.7634V44.5625C70.0638 44.1658 70.4434 43.8513 70.9024 43.619C71.3614 43.381 71.8601 43.262 72.3984 43.262C72.7271 43.262 73.0444 43.3045 73.3504 43.3895L72.7724 44.8175C72.5401 44.7438 72.3134 44.707 72.0924 44.707C71.6674 44.707 71.2764 44.8118 70.9194 45.0215C70.5681 45.2255 70.2876 45.5032 70.0779 45.8545C69.8683 46.2058 69.7634 46.5968 69.7634 47.0275V52H68.3354ZM83.0484 52H81.2209L78.1184 43.483H79.6399L82.1304 50.3425L84.6209 43.483H86.1424L83.0484 52ZM94.0288 43.5H95.4568V52H94.0288L93.9693 50.5635C93.703 51.0565 93.3346 51.456 92.8643 51.762C92.3996 52.068 91.8443 52.221 91.1983 52.221C90.575 52.221 89.9913 52.1048 89.4473 51.8725C88.9033 51.6345 88.4216 51.3087 88.0023 50.895C87.5886 50.4757 87.2656 49.994 87.0333 49.45C86.801 48.906 86.6848 48.3195 86.6848 47.6905C86.6848 47.0842 86.7981 46.5118 87.0248 45.9735C87.2515 45.4352 87.566 44.9648 87.9683 44.5625C88.3763 44.1545 88.8466 43.8372 89.3793 43.6105C89.912 43.3782 90.4843 43.262 91.0963 43.262C91.765 43.262 92.3515 43.4207 92.8558 43.738C93.3601 44.0497 93.7681 44.4548 94.0798 44.9535L94.0288 43.5ZM91.1728 50.8355C91.7338 50.8355 92.2183 50.6995 92.6263 50.4275C93.04 50.1498 93.3573 49.7758 93.5783 49.3055C93.805 48.8352 93.9183 48.3167 93.9183 47.75C93.9183 47.172 93.805 46.6507 93.5783 46.186C93.3516 45.7157 93.0315 45.3445 92.6178 45.0725C92.2098 44.7948 91.7281 44.656 91.1728 44.656C90.6118 44.656 90.1018 44.7948 89.6428 45.0725C89.1838 45.3502 88.8183 45.7242 88.5463 46.1945C88.28 46.6592 88.1468 47.1777 88.1468 47.75C88.1468 48.3223 88.2856 48.8437 88.5633 49.314C88.841 49.7787 89.2093 50.1498 89.6683 50.4275C90.1273 50.6995 90.6288 50.8355 91.1728 50.8355ZM104.67 46.713V52H103.242V47.0275C103.242 46.5968 103.137 46.2058 102.927 45.8545C102.718 45.5032 102.437 45.2255 102.086 45.0215C101.734 44.8118 101.343 44.707 100.913 44.707C100.488 44.707 100.097 44.8118 99.7397 45.0215C99.3884 45.2255 99.1079 45.5032 98.8982 45.8545C98.6886 46.2058 98.5837 46.5968 98.5837 47.0275V52H97.1557V43.5H98.5837V44.5625C98.8841 44.1658 99.2637 43.8513 99.7227 43.619C100.182 43.381 100.68 43.262 101.219 43.262C101.853 43.262 102.431 43.4178 102.953 43.7295C103.48 44.0355 103.896 44.4492 104.202 44.9705C104.514 45.4918 104.67 46.0727 104.67 46.713ZM112.383 41.4005V43.5H114.874V44.928H112.383V52H110.955V44.928H109.859V43.5H110.955V41.4005C110.955 40.9642 111.06 40.5703 111.27 40.219C111.485 39.862 111.771 39.5787 112.128 39.369C112.491 39.1537 112.887 39.046 113.318 39.046C113.635 39.046 113.944 39.1112 114.245 39.2415C114.545 39.3662 114.811 39.5532 115.044 39.8025L114.024 40.814C113.944 40.7063 113.839 40.6242 113.709 40.5675C113.584 40.5052 113.454 40.474 113.318 40.474C113.063 40.474 112.842 40.5647 112.655 40.746C112.474 40.9273 112.383 41.1455 112.383 41.4005ZM119.788 52.221C119.006 52.221 118.292 52.0198 117.646 51.6175C117.006 51.2152 116.493 50.6768 116.108 50.0025C115.728 49.3225 115.538 48.5717 115.538 47.75C115.538 47.1267 115.649 46.5458 115.87 46.0075C116.091 45.4635 116.394 44.9875 116.779 44.5795C117.17 44.1658 117.624 43.8428 118.139 43.6105C118.655 43.3782 119.205 43.262 119.788 43.262C120.57 43.262 121.281 43.4632 121.922 43.8655C122.568 44.2678 123.081 44.809 123.46 45.489C123.846 46.169 124.038 46.9227 124.038 47.75C124.038 48.3677 123.928 48.9457 123.707 49.484C123.486 50.0223 123.18 50.4983 122.789 50.912C122.403 51.32 121.953 51.6402 121.437 51.8725C120.927 52.1048 120.378 52.221 119.788 52.221ZM119.788 50.793C120.321 50.793 120.8 50.6542 121.225 50.3765C121.655 50.0932 121.993 49.722 122.236 49.263C122.486 48.7983 122.61 48.294 122.61 47.75C122.61 47.1947 122.483 46.6847 122.228 46.22C121.978 45.7553 121.641 45.3842 121.216 45.1065C120.791 44.8288 120.315 44.69 119.788 44.69C119.256 44.69 118.777 44.8317 118.352 45.115C117.927 45.3927 117.59 45.7638 117.34 46.2285C117.091 46.6932 116.966 47.2003 116.966 47.75C116.966 48.3167 117.094 48.8323 117.349 49.297C117.604 49.756 117.947 50.1215 118.377 50.3935C118.808 50.6598 119.278 50.793 119.788 50.793ZM125.445 52V43.5H126.873V44.5625C127.173 44.1658 127.553 43.8513 128.012 43.619C128.471 43.381 128.969 43.262 129.508 43.262C129.836 43.262 130.154 43.3045 130.46 43.3895L129.882 44.8175C129.649 44.7438 129.423 44.707 129.202 44.707C128.777 44.707 128.386 44.8118 128.029 45.0215C127.677 45.2255 127.397 45.5032 127.187 45.8545C126.978 46.2058 126.873 46.5968 126.873 47.0275V52H125.445ZM135.738 52V43.5H137.166V44.5625C137.466 44.1658 137.843 43.8513 138.296 43.619C138.755 43.381 139.254 43.262 139.792 43.262C140.421 43.262 140.996 43.415 141.518 43.721C142.039 44.027 142.45 44.4322 142.75 44.9365C143.051 44.4322 143.459 44.027 143.974 43.721C144.496 43.415 145.068 43.262 145.691 43.262C146.332 43.262 146.912 43.4178 147.434 43.7295C147.955 44.0355 148.369 44.4492 148.675 44.9705C148.986 45.4918 149.142 46.0727 149.142 46.713V52H147.714V47.053C147.714 46.6337 147.612 46.2455 147.408 45.8885C147.204 45.5315 146.929 45.2453 146.584 45.03C146.238 44.8147 145.856 44.707 145.436 44.707C145.017 44.707 144.634 44.809 144.289 45.013C143.943 45.2113 143.668 45.489 143.464 45.846C143.26 46.1973 143.158 46.5997 143.158 47.053V52H141.73V47.053C141.73 46.5997 141.628 46.1973 141.424 45.846C141.22 45.489 140.943 45.2113 140.591 45.013C140.246 44.809 139.863 44.707 139.444 44.707C139.03 44.707 138.648 44.8147 138.296 45.03C137.951 45.2453 137.676 45.5315 137.472 45.8885C137.268 46.2455 137.166 46.6337 137.166 47.053V52H135.738ZM154.419 52.221C153.637 52.221 152.923 52.0198 152.277 51.6175C151.637 51.2152 151.124 50.6768 150.739 50.0025C150.359 49.3225 150.169 48.5717 150.169 47.75C150.169 47.1267 150.28 46.5458 150.501 46.0075C150.722 45.4635 151.025 44.9875 151.41 44.5795C151.801 44.1658 152.255 43.8428 152.77 43.6105C153.286 43.3782 153.836 43.262 154.419 43.262C155.201 43.262 155.912 43.4632 156.553 43.8655C157.199 44.2678 157.712 44.809 158.091 45.489C158.477 46.169 158.669 46.9227 158.669 47.75C158.669 48.3677 158.559 48.9457 158.338 49.484C158.117 50.0223 157.811 50.4983 157.42 50.912C157.034 51.32 156.584 51.6402 156.068 51.8725C155.558 52.1048 155.009 52.221 154.419 52.221ZM154.419 50.793C154.952 50.793 155.431 50.6542 155.856 50.3765C156.286 50.0932 156.624 49.722 156.867 49.263C157.117 48.7983 157.241 48.294 157.241 47.75C157.241 47.1947 157.114 46.6847 156.859 46.22C156.609 45.7553 156.272 45.3842 155.847 45.1065C155.422 44.8288 154.946 44.69 154.419 44.69C153.887 44.69 153.408 44.8317 152.983 45.115C152.558 45.3927 152.221 45.7638 151.971 46.2285C151.722 46.6932 151.597 47.2003 151.597 47.75C151.597 48.3167 151.725 48.8323 151.98 49.297C152.235 49.756 152.578 50.1215 153.008 50.3935C153.439 50.6598 153.909 50.793 154.419 50.793ZM164.13 52H162.303L159.2 43.483H160.722L163.212 50.3425L165.703 43.483H167.224L164.13 52ZM168.609 43.5H170.037V52H168.609V43.5ZM169.34 42.1145C169.113 42.1145 168.923 42.0408 168.77 41.8935C168.617 41.7462 168.541 41.562 168.541 41.341C168.541 41.12 168.617 40.9358 168.77 40.7885C168.923 40.6412 169.11 40.5675 169.331 40.5675C169.552 40.5675 169.739 40.6412 169.892 40.7885C170.045 40.9358 170.122 41.12 170.122 41.341C170.122 41.562 170.045 41.7462 169.892 41.8935C169.745 42.0408 169.561 42.1145 169.34 42.1145ZM179.543 46.713V52H178.115V47.0275C178.115 46.5968 178.01 46.2058 177.8 45.8545C177.591 45.5032 177.31 45.2255 176.959 45.0215C176.607 44.8118 176.216 44.707 175.786 44.707C175.361 44.707 174.97 44.8118 174.613 45.0215C174.261 45.2255 173.981 45.5032 173.771 45.8545C173.562 46.2058 173.457 46.5968 173.457 47.0275V52H172.029V43.5H173.457V44.5625C173.757 44.1658 174.137 43.8513 174.596 43.619C175.055 43.381 175.553 43.262 176.092 43.262C176.726 43.262 177.304 43.4178 177.826 43.7295C178.353 44.0355 178.769 44.4492 179.075 44.9705C179.387 45.4918 179.543 46.0727 179.543 46.713ZM187.715 43.5H189.143V52.272C189.143 52.833 189.021 53.3543 188.778 53.836C188.54 54.3233 188.217 54.7455 187.809 55.1025C187.401 55.4652 186.936 55.7457 186.415 55.944C185.893 56.148 185.349 56.25 184.783 56.25C184.193 56.25 183.624 56.1168 183.074 55.8505C182.524 55.5898 182.043 55.2385 181.629 54.7965C181.221 54.3602 180.926 53.87 180.745 53.326L182.054 52.731C182.162 53.122 182.354 53.4733 182.632 53.785C182.915 54.1023 183.244 54.3517 183.618 54.533C183.998 54.72 184.386 54.8135 184.783 54.8135C185.157 54.8135 185.516 54.7483 185.862 54.618C186.213 54.4877 186.528 54.3063 186.806 54.074C187.089 53.8473 187.31 53.5782 187.469 53.2665C187.633 52.9605 187.715 52.629 187.715 52.272V50.5805C187.426 51.0678 187.044 51.4645 186.568 51.7705C186.097 52.0708 185.548 52.221 184.919 52.221C184.318 52.221 183.754 52.1048 183.227 51.8725C182.7 51.6402 182.238 51.32 181.842 50.912C181.445 50.4983 181.133 50.0223 180.907 49.484C180.68 48.9457 180.567 48.3677 180.567 47.75C180.567 47.1323 180.68 46.5543 180.907 46.016C181.133 45.472 181.445 44.996 181.842 44.588C182.238 44.1743 182.7 43.8513 183.227 43.619C183.754 43.3867 184.318 43.2705 184.919 43.2705C185.548 43.2705 186.097 43.4207 186.568 43.721C187.044 44.0213 187.426 44.418 187.715 44.911V43.5ZM184.927 50.8355C185.477 50.8355 185.953 50.6938 186.355 50.4105C186.763 50.1272 187.078 49.7503 187.299 49.28C187.52 48.8097 187.63 48.2997 187.63 47.75C187.63 47.1833 187.517 46.6677 187.29 46.203C187.069 45.7327 186.755 45.3587 186.347 45.081C185.944 44.7977 185.471 44.656 184.927 44.656C184.394 44.656 183.907 44.7948 183.465 45.0725C183.023 45.3502 182.672 45.7242 182.411 46.1945C182.156 46.6592 182.029 47.1777 182.029 47.75C182.029 48.3223 182.159 48.8437 182.42 49.314C182.686 49.7787 183.037 50.1498 183.474 50.4275C183.916 50.6995 184.4 50.8355 184.927 50.8355ZM199.011 52.221C198.229 52.221 197.515 52.0198 196.869 51.6175C196.229 51.2152 195.716 50.6768 195.33 50.0025C194.951 49.3225 194.761 48.5717 194.761 47.75C194.761 47.1267 194.871 46.5458 195.092 46.0075C195.313 45.4635 195.617 44.9875 196.002 44.5795C196.393 44.1658 196.846 43.8428 197.362 43.6105C197.878 43.3782 198.427 43.262 199.011 43.262C199.793 43.262 200.504 43.4632 201.144 43.8655C201.79 44.2678 202.303 44.809 202.683 45.489C203.068 46.169 203.261 46.9227 203.261 47.75C203.261 48.3677 203.15 48.9457 202.929 49.484C202.708 50.0223 202.402 50.4983 202.011 50.912C201.626 51.32 201.176 51.6402 200.66 51.8725C200.15 52.1048 199.6 52.221 199.011 52.221ZM199.011 50.793C199.544 50.793 200.022 50.6542 200.447 50.3765C200.878 50.0932 201.215 49.722 201.459 49.263C201.708 48.7983 201.833 48.294 201.833 47.75C201.833 47.1947 201.705 46.6847 201.45 46.22C201.201 45.7553 200.864 45.3842 200.439 45.1065C200.014 44.8288 199.538 44.69 199.011 44.69C198.478 44.69 197.999 44.8317 197.574 45.115C197.149 45.3927 196.812 45.7638 196.563 46.2285C196.314 46.6932 196.189 47.2003 196.189 47.75C196.189 48.3167 196.316 48.8323 196.571 49.297C196.826 49.756 197.169 50.1215 197.6 50.3935C198.031 50.6598 198.501 50.793 199.011 50.793ZM204.667 52V43.5H206.095V44.5625C206.396 44.1658 206.775 43.8513 207.234 43.619C207.693 43.381 208.192 43.262 208.73 43.262C209.059 43.262 209.376 43.3045 209.682 43.3895L209.104 44.8175C208.872 44.7438 208.645 44.707 208.424 44.707C207.999 44.707 207.608 44.8118 207.251 45.0215C206.9 45.2255 206.62 45.5032 206.41 45.8545C206.2 46.2058 206.095 46.5968 206.095 47.0275V52H204.667ZM219.38 52H217.553L214.45 43.483H215.972L218.462 50.3425L220.953 43.483H222.474L219.38 52ZM230.361 43.5H231.789V52H230.361L230.301 50.5635C230.035 51.0565 229.667 51.456 229.196 51.762C228.732 52.068 228.176 52.221 227.53 52.221C226.907 52.221 226.323 52.1048 225.779 51.8725C225.235 51.6345 224.754 51.3087 224.334 50.895C223.921 50.4757 223.598 49.994 223.365 49.45C223.133 48.906 223.017 48.3195 223.017 47.6905C223.017 47.0842 223.13 46.5118 223.357 45.9735C223.584 45.4352 223.898 44.9648 224.3 44.5625C224.708 44.1545 225.179 43.8372 225.711 43.6105C226.244 43.3782 226.816 43.262 227.428 43.262C228.097 43.262 228.684 43.4207 229.188 43.738C229.692 44.0497 230.1 44.4548 230.412 44.9535L230.361 43.5ZM227.505 50.8355C228.066 50.8355 228.55 50.6995 228.958 50.4275C229.372 50.1498 229.689 49.7758 229.91 49.3055C230.137 48.8352 230.25 48.3167 230.25 47.75C230.25 47.172 230.137 46.6507 229.91 46.186C229.684 45.7157 229.364 45.3445 228.95 45.0725C228.542 44.7948 228.06 44.656 227.505 44.656C226.944 44.656 226.434 44.7948 225.975 45.0725C225.516 45.3502 225.15 45.7242 224.878 46.1945C224.612 46.6592 224.479 47.1777 224.479 47.75C224.479 48.3223 224.618 48.8437 224.895 49.314C225.173 49.7787 225.541 50.1498 226 50.4275C226.459 50.6995 226.961 50.8355 227.505 50.8355ZM239.178 49.756L240.453 50.4445C240.068 50.9828 239.578 51.4135 238.983 51.7365C238.393 52.0595 237.753 52.221 237.062 52.221C236.28 52.221 235.566 52.0198 234.92 51.6175C234.279 51.2152 233.767 50.6768 233.381 50.0025C233.002 49.3225 232.812 48.5717 232.812 47.75C232.812 47.1267 232.922 46.5458 233.143 46.0075C233.364 45.4635 233.667 44.9875 234.053 44.5795C234.444 44.1658 234.897 43.8428 235.413 43.6105C235.928 43.3782 236.478 43.262 237.062 43.262C237.753 43.262 238.393 43.4235 238.983 43.7465C239.578 44.0695 240.068 44.503 240.453 45.047L239.178 45.7355C238.906 45.4012 238.583 45.1433 238.209 44.962C237.835 44.7807 237.453 44.69 237.062 44.69C236.535 44.69 236.056 44.8317 235.625 45.115C235.2 45.3927 234.863 45.7638 234.614 46.2285C234.364 46.6932 234.24 47.2003 234.24 47.75C234.24 48.2997 234.364 48.8068 234.614 49.2715C234.869 49.7305 235.209 50.0988 235.634 50.3765C236.064 50.6542 236.54 50.793 237.062 50.793C237.481 50.793 237.875 50.6967 238.243 50.504C238.612 50.3113 238.923 50.062 239.178 49.756ZM248.672 43.5H250.1V52H248.672L248.613 50.5635C248.347 51.0565 247.978 51.456 247.508 51.762C247.043 52.068 246.488 52.221 245.842 52.221C245.219 52.221 244.635 52.1048 244.091 51.8725C243.547 51.6345 243.065 51.3087 242.646 50.895C242.232 50.4757 241.909 49.994 241.677 49.45C241.445 48.906 241.328 48.3195 241.328 47.6905C241.328 47.0842 241.442 46.5118 241.668 45.9735C241.895 45.4352 242.21 44.9648 242.612 44.5625C243.02 44.1545 243.49 43.8372 244.023 43.6105C244.556 43.3782 245.128 43.262 245.74 43.262C246.409 43.262 246.995 43.4207 247.499 43.738C248.004 44.0497 248.412 44.4548 248.723 44.9535L248.672 43.5ZM245.816 50.8355C246.377 50.8355 246.862 50.6995 247.27 50.4275C247.684 50.1498 248.001 49.7758 248.222 49.3055C248.449 48.8352 248.562 48.3167 248.562 47.75C248.562 47.172 248.449 46.6507 248.222 46.186C247.995 45.7157 247.675 45.3445 247.261 45.0725C246.853 44.7948 246.372 44.656 245.816 44.656C245.255 44.656 244.745 44.7948 244.286 45.0725C243.827 45.3502 243.462 45.7242 243.19 46.1945C242.924 46.6592 242.79 47.1777 242.79 47.75C242.79 48.3223 242.929 48.8437 243.207 49.314C243.485 49.7787 243.853 50.1498 244.312 50.4275C244.771 50.6995 245.272 50.8355 245.816 50.8355ZM256.202 44.928H254.273L254.264 52H252.836L252.845 44.928H251.383V43.5H252.845L252.836 40.831H254.264L254.273 43.5H256.202V44.928ZM257.643 43.5H259.071V52H257.643V43.5ZM258.374 42.1145C258.147 42.1145 257.958 42.0408 257.805 41.8935C257.652 41.7462 257.575 41.562 257.575 41.341C257.575 41.12 257.652 40.9358 257.805 40.7885C257.958 40.6412 258.145 40.5675 258.366 40.5675C258.587 40.5675 258.774 40.6412 258.927 40.7885C259.08 40.9358 259.156 41.12 259.156 41.341C259.156 41.562 259.08 41.7462 258.927 41.8935C258.779 42.0408 258.595 42.1145 258.374 42.1145ZM264.737 52.221C263.955 52.221 263.241 52.0198 262.595 51.6175C261.954 51.2152 261.441 50.6768 261.056 50.0025C260.676 49.3225 260.487 48.5717 260.487 47.75C260.487 47.1267 260.597 46.5458 260.818 46.0075C261.039 45.4635 261.342 44.9875 261.728 44.5795C262.119 44.1658 262.572 43.8428 263.088 43.6105C263.603 43.3782 264.153 43.262 264.737 43.262C265.519 43.262 266.23 43.4632 266.87 43.8655C267.516 44.2678 268.029 44.809 268.409 45.489C268.794 46.169 268.987 46.9227 268.987 47.75C268.987 48.3677 268.876 48.9457 268.655 49.484C268.434 50.0223 268.128 50.4983 267.737 50.912C267.352 51.32 266.901 51.6402 266.386 51.8725C265.876 52.1048 265.326 52.221 264.737 52.221ZM264.737 50.793C265.269 50.793 265.748 50.6542 266.173 50.3765C266.604 50.0932 266.941 49.722 267.185 49.263C267.434 48.7983 267.559 48.294 267.559 47.75C267.559 47.1947 267.431 46.6847 267.176 46.22C266.927 45.7553 266.59 45.3842 266.165 45.1065C265.74 44.8288 265.264 44.69 264.737 44.69C264.204 44.69 263.725 44.8317 263.3 45.115C262.875 45.3927 262.538 45.7638 262.289 46.2285C262.039 46.6932 261.915 47.2003 261.915 47.75C261.915 48.3167 262.042 48.8323 262.297 49.297C262.552 49.756 262.895 50.1215 263.326 50.3935C263.756 50.6598 264.227 50.793 264.737 50.793ZM277.907 46.713V52H276.479V47.0275C276.479 46.5968 276.374 46.2058 276.165 45.8545C275.955 45.5032 275.674 45.2255 275.323 45.0215C274.972 44.8118 274.581 44.707 274.15 44.707C273.725 44.707 273.334 44.8118 272.977 45.0215C272.626 45.2255 272.345 45.5032 272.136 45.8545C271.926 46.2058 271.821 46.5968 271.821 47.0275V52H270.393V43.5H271.821V44.5625C272.121 44.1658 272.501 43.8513 272.96 43.619C273.419 43.381 273.918 43.262 274.456 43.262C275.091 43.262 275.669 43.4178 276.19 43.7295C276.717 44.0355 277.134 44.4492 277.44 44.9705C277.751 45.4918 277.907 46.0727 277.907 46.713Z" fill="#222222"/>
<g clip-path="url(#clip0_38_4)">
<path d="M152.601 87.644H163.263L165.508 78.4194H162.246V75.9642H166.245C166.245 75.9642 167.332 75.0873 166.245 74H156.704L152.601 78.3142C152.601 78.3142 145.866 78.0687 143.902 79.5769C141.938 81.0851 139.272 84.1015 141.377 86.697" fill="#F68F64"/>
<path d="M160.493 78.244V75.7187H157.055L154.635 78.1739L160.493 78.244Z" fill="#F68F64"/>
<path d="M147.269 91.5724C144.849 91.5724 142.885 89.6082 142.885 87.188C142.885 84.7679 144.849 82.8037 147.269 82.8037C149.69 82.8037 151.654 84.7679 151.654 87.188C151.654 89.6082 149.69 91.5724 147.269 91.5724Z" fill="#F68F64"/>
<path d="M147.269 83.3649C149.409 83.3649 151.128 85.0836 151.128 87.2231C151.128 89.3627 149.409 91.0813 147.269 91.0813C145.13 91.0813 143.411 89.3627 143.411 87.2231C143.411 85.0836 145.165 83.3649 147.269 83.3649ZM147.269 82.3127C144.569 82.3127 142.359 84.5224 142.359 87.2231C142.359 89.9239 144.569 92.1336 147.269 92.1336C149.97 92.1336 152.18 89.9239 152.18 87.2231C152.18 84.5224 149.97 82.3127 147.269 82.3127Z" fill="#F68F64"/>
<path d="M165.789 88.556V89.8888L168.91 92.0284C168.91 92.0284 169.998 92.9052 168.91 92.9052C167.823 92.9052 164.526 92.8 164.631 92.9052C164.737 93.0104 162.562 102.095 162.562 102.095H174.733H184.343C184.343 102.095 186.623 102.305 186.623 101.218C186.623 100.131 186.623 99.0082 186.623 99.0082H187.29V96.9037H186.623C186.623 96.9037 186.378 94.3784 181.292 93.5015C176.206 92.6246 172.804 92.5194 172.804 92.5194L165.789 88.556Z" fill="#F68F64"/>
<path d="M179.398 107.882C176.978 107.882 175.013 105.918 175.013 103.498C175.013 101.078 176.978 99.1134 179.398 99.1134C181.818 99.1134 183.782 101.078 183.782 103.498C183.782 105.918 181.818 107.882 179.398 107.882Z" fill="#F68F64"/>
<path d="M179.398 99.6746C181.537 99.6746 183.256 101.393 183.256 103.533C183.256 105.672 181.537 107.391 179.398 107.391C177.258 107.391 175.54 105.672 175.54 103.533C175.54 101.393 177.258 99.6746 179.398 99.6746ZM179.398 98.6224C176.697 98.6224 174.487 100.832 174.487 103.533C174.487 106.234 176.697 108.443 179.398 108.443C182.098 108.443 184.308 106.234 184.308 103.533C184.308 100.797 182.098 98.6224 179.398 98.6224Z" fill="#F68F64"/>
<path d="M181.783 91.3269L180.485 91.2918V91.0463C180.731 86.0657 177.96 83.4 175.224 81.997L174.382 84.9783L169.472 79.9978L176.241 78.244L175.469 80.9798C178.626 82.2425 182.063 85.0836 181.783 91.3269Z" fill="#F68F64"/>
<path d="M145.2 92.4493L146.498 92.2739L146.533 92.5194C147.199 97.4649 150.391 99.5694 153.337 100.481L153.618 97.3948L159.335 101.428L152.987 104.375L153.232 101.534C149.9 100.832 146.042 98.6575 145.2 92.4493Z" fill="#F68F64"/>
</g>
<defs>
<clipPath id="clip0_38_4">
<rect width="47" height="34.7239" fill="white" transform="translate(140.5 74)"/>
</clipPath>
</defs>
</svg>
