<svg width="24" height="23" viewBox="0 0 24 23" fill="none" xmlns="http://www.w3.org/2000/svg">
<path d="M21.7085 10.0417H5.41887L12.5355 2.92505C13.1043 2.3563 13.1043 1.42296 12.5355 0.854215C12.4006 0.719022 12.2404 0.611765 12.0639 0.538584C11.8875 0.465403 11.6984 0.427734 11.5074 0.427734C11.3164 0.427734 11.1273 0.465403 10.9509 0.538584C10.7745 0.611765 10.6142 0.719022 10.4793 0.854215L0.868864 10.4646C0.733671 10.5995 0.626414 10.7598 0.553233 10.9362C0.480052 11.1126 0.442383 11.3018 0.442383 11.4928C0.442383 11.6837 0.480052 11.8729 0.553233 12.0493C0.626414 12.2257 0.733671 12.386 0.868864 12.5209L10.4793 22.1313C10.6143 22.2663 10.7746 22.3734 10.951 22.4465C11.1274 22.5195 11.3165 22.5572 11.5074 22.5572C11.6983 22.5572 11.8874 22.5195 12.0638 22.4465C12.2402 22.3734 12.4005 22.2663 12.5355 22.1313C12.6705 21.9963 12.7776 21.836 12.8507 21.6596C12.9238 21.4832 12.9614 21.2941 12.9614 21.1032C12.9614 20.9122 12.9238 20.7232 12.8507 20.5468C12.7776 20.3703 12.6705 20.2101 12.5355 20.075L5.41887 12.9584H21.7085C22.5105 12.9584 23.1668 12.3021 23.1668 11.5C23.1668 10.698 22.5105 10.0417 21.7085 10.0417Z" fill="black"/>
</svg>
